<?xml version="1.0" encoding="UTF-8"?>
<!DOCTYPE svg PUBLIC "-//W3C//DTD SVG 1.1//EN" "http://www.w3.org/Graphics/SVG/1.1/DTD/svg11.dtd">
<svg xmlns="http://www.w3.org/2000/svg" version="1.1" width="1024px" height="1024px" style="shape-rendering:geometricPrecision; text-rendering:geometricPrecision; image-rendering:optimizeQuality; fill-rule:evenodd; clip-rule:evenodd" xmlns:xlink="http://www.w3.org/1999/xlink">
<g><path style="opacity:1" fill="#fefefe" d="M -0.5,-0.5 C 340.833,-0.5 682.167,-0.5 1023.5,-0.5C 1023.5,340.833 1023.5,682.167 1023.5,1023.5C 682.167,1023.5 340.833,1023.5 -0.5,1023.5C -0.5,682.167 -0.5,340.833 -0.5,-0.5 Z"/></g>
<g><path style="opacity:1" fill="#50a0e9" d="M 503.5,201.5 C 536.329,202.498 569.329,202.832 602.5,202.5C 602.5,220.5 602.5,238.5 602.5,256.5C 599.302,255.964 596.635,256.631 594.5,258.5C 589.281,262.701 589.281,267.034 594.5,271.5C 595.263,272.268 596.263,272.768 597.5,273C 647.833,273.667 698.167,273.667 748.5,273C 749.737,272.768 750.737,272.268 751.5,271.5C 753.371,271.141 754.871,270.141 756,268.5C 756.5,299.832 756.667,331.165 756.5,362.5C 750.525,362.42 744.858,362.42 739.5,362.5C 736.88,357.716 733.046,354.049 728,351.5C 727.333,345.167 727.333,338.833 728,332.5C 731.945,330.384 735.445,327.718 738.5,324.5C 743.972,316.122 743.638,307.789 737.5,299.5C 730.497,292.606 723.164,290.94 715.5,294.5C 703.014,300.821 699.514,310.487 705,323.5C 707.727,326.731 710.894,329.397 714.5,331.5C 715.833,338.5 715.833,345.5 714.5,352.5C 711.216,354.117 708.549,356.45 706.5,359.5C 702.417,360.857 698.417,360.691 694.5,359C 686.5,351 678.5,343 670.5,335C 674.786,321.903 670.452,312.903 657.5,308C 645.879,306.609 638.046,311.443 634,322.5C 632.818,333.793 637.318,341.793 647.5,346.5C 652.343,347.956 657.176,347.623 662,345.5C 670.759,353.755 678.926,362.421 686.5,371.5C 682.464,376.371 677.964,380.704 673,384.5C 662.508,380.553 654.175,383.22 648,392.5C 643.21,405.408 647.044,414.575 659.5,420C 670.647,422.181 678.147,418.014 682,407.5C 682.333,402.5 682.667,397.5 683,392.5C 688.833,386.667 694.667,380.833 700.5,375C 701.793,374.51 703.127,374.343 704.5,374.5C 704.776,377.719 706.109,380.385 708.5,382.5C 707.761,382.369 707.094,382.536 706.5,383C 707.159,397.265 707.825,411.431 708.5,425.5C 695.213,430.411 690.713,439.744 695,453.5C 702.645,463.856 712.479,466.356 724.5,461C 737.016,448.534 736.35,437.034 722.5,426.5C 722.21,414.456 722.543,402.123 723.5,389.5C 728.909,394.917 734.576,399.917 740.5,404.5C 746.163,409.996 751.997,415.329 758,420.5C 758.667,468.833 758.667,517.167 758,565.5C 756.672,571.822 754.005,577.489 750,582.5C 748.568,584.439 746.735,585.772 744.5,586.5C 740.367,588.489 736.033,589.989 731.5,591C 672.501,591.5 613.501,591.667 554.5,591.5C 554.818,586.968 554.485,582.634 553.5,578.5C 549.148,572.336 543.148,570.003 535.5,571.5C 535.666,562.161 535.5,552.827 535,543.5C 530.728,527.401 520.228,519.401 503.5,519.5C 505.83,493.5 496.33,473.167 475,458.5C 455.055,429.556 434.722,400.889 414,372.5C 413.333,371.5 413.333,370.5 414,369.5C 429.619,348.88 445.619,328.546 462,308.5C 465.9,303.467 470.733,302.3 476.5,305C 497.331,318.583 518.331,331.916 539.5,345C 542.952,348.734 545.785,352.9 548,357.5C 549.708,359.543 551.708,361.21 554,362.5C 554.5,369.492 554.666,376.492 554.5,383.5C 548.824,383.334 543.157,383.501 537.5,384C 536.333,385.167 535.167,386.333 534,387.5C 533.333,396.833 533.333,406.167 534,415.5C 534.997,417.323 536.164,418.99 537.5,420.5C 538.278,421.156 538.944,421.989 539.5,423C 537.733,428.136 536.066,433.302 534.5,438.5C 537.076,445.981 540.41,452.981 544.5,459.5C 546.117,461.121 547.284,463.121 548,465.5C 552.333,470.833 556.667,470.833 561,465.5C 561.667,463.167 561.667,460.833 561,458.5C 557.348,451.364 553.848,444.197 550.5,437C 552.869,432.393 554.535,427.56 555.5,422.5C 566.415,422.18 577.248,422.513 588,423.5C 590.095,427.452 591.595,431.618 592.5,436C 588.78,444.774 584.78,453.441 580.5,462C 582.041,467.871 585.708,469.871 591.5,468C 597.297,459.577 602.464,450.744 607,441.5C 607.174,434.671 605.674,428.171 602.5,422C 605.202,420.393 607.369,418.226 609,415.5C 609.667,406.167 609.667,396.833 609,387.5C 607.898,386.051 606.731,384.718 605.5,383.5C 600.695,382.513 595.695,382.179 590.5,382.5C 590.334,375.825 590.5,369.158 591,362.5C 603.386,353.413 608.22,341.413 605.5,326.5C 599.99,310.834 588.99,301.334 572.5,298C 547.99,280.578 523.656,262.911 499.5,245C 486.599,224.478 468.599,217.811 445.5,225C 430.992,232.811 422.492,244.977 420,261.5C 391.11,289.718 363.11,318.385 336,347.5C 326.454,368.432 330.454,386.432 348,401.5C 362.862,433.886 377.695,466.219 392.5,498.5C 392.5,505.5 392.5,512.5 392.5,519.5C 389.615,519.194 386.948,519.527 384.5,520.5C 371.927,523.239 364.093,530.906 361,543.5C 360.5,552.827 360.334,562.161 360.5,571.5C 353.479,570.074 347.813,572.074 343.5,577.5C 342.514,581.97 342.181,586.637 342.5,591.5C 325.325,591.17 308.325,591.503 291.5,592.5C 287.155,592.163 283.155,590.829 279.5,588.5C 275.795,585.795 272.795,582.462 270.5,578.5C 268.1,573.797 266.6,568.797 266,563.5C 265.5,528.502 265.333,493.502 265.5,458.5C 279.171,458.667 292.837,458.5 306.5,458C 309.573,457.261 311.74,455.428 313,452.5C 313.667,407.5 313.667,362.5 313,317.5C 312.833,362.335 312.333,407.002 311.5,451.5C 311.667,406.499 311.5,361.499 311,316.5C 310.097,315.299 308.931,314.465 307.5,314C 293.171,313.5 278.837,313.333 264.5,313.5C 264.5,311.167 264.5,308.833 264.5,306.5C 265.494,296.347 265.828,286.014 265.5,275.5C 293.169,275.667 320.835,275.5 348.5,275C 350.426,274.578 351.426,273.411 351.5,271.5C 351.169,248.327 351.502,225.327 352.5,202.5C 352.5,202.167 352.5,201.833 352.5,201.5C 377.908,201.823 403.241,201.49 428.5,200.5C 440.56,191.104 452.893,182.104 465.5,173.5C 478.55,182.354 491.216,191.687 503.5,201.5 Z"/></g>
<g><path style="opacity:1" fill="#010307" d="M 347.5,159.5 C 310.832,159.333 274.165,159.5 237.5,160C 236.069,160.465 234.903,161.299 234,162.5C 233.333,198.5 233.333,234.5 234,270.5C 235.171,271.893 236.671,272.727 238.5,273C 242.688,273.176 246.688,273.676 250.5,274.5C 245.821,274.666 241.155,274.499 236.5,274C 235.069,273.535 233.903,272.701 233,271.5C 232.333,234.833 232.333,198.167 233,161.5C 233.903,160.299 235.069,159.465 236.5,159C 273.669,158.169 310.669,158.336 347.5,159.5 Z"/></g>
<g><path style="opacity:1" fill="#0f2432" d="M 770.5,236.5 C 769.876,236.917 769.543,237.584 769.5,238.5C 770.322,279.478 770.822,320.478 771,361.5C 771.5,321.501 771.667,281.501 771.5,241.5C 772.499,281.33 772.832,321.33 772.5,361.5C 776.637,361.854 780.637,361.354 784.5,360C 790.762,354.282 796.929,348.449 803,342.5C 802.379,328.696 808.713,320.363 822,317.5C 836.514,319.519 843.181,327.853 842,342.5C 835.929,356.136 826.095,359.803 812.5,353.5C 806.5,358.5 800.5,363.5 794.5,368.5C 800.985,375.486 807.652,382.319 814.5,389C 819.385,386.417 824.719,384.583 830.5,383.5C 848.427,387.354 853.594,397.687 846,414.5C 835.865,424.596 825.532,424.929 815,415.5C 812.477,411.931 811.144,407.931 811,403.5C 801.167,394.333 791.333,385.167 781.5,376C 778.518,375.502 775.518,375.335 772.5,375.5C 772.5,390.167 772.5,404.833 772.5,419.5C 771.669,405.006 771.169,390.339 771,375.5C 770.333,390.5 770.333,405.5 771,420.5C 774.098,424.107 777.598,427.107 781.5,429.5C 785.103,431.763 788.436,434.43 791.5,437.5C 801.976,432.383 810.81,434.383 818,443.5C 822.693,453.702 820.86,462.536 812.5,470C 800.263,476.254 790.763,473.42 784,461.5C 782.336,456.543 782.003,451.543 783,446.5C 779.855,443.266 776.522,440.266 773,437.5C 772.833,480.335 772.333,523.002 771.5,565.5C 771.667,522.499 771.5,479.499 771,436.5C 770.823,481.189 770.323,525.856 769.5,570.5C 769.543,571.416 769.876,572.083 770.5,572.5C 764.085,592.582 750.419,603.915 729.5,606.5C 584.167,605.833 438.833,605.167 293.5,604.5C 312.512,604.833 331.512,604.5 350.5,603.5C 351.106,601.291 351.773,599.124 352.5,597C 351.216,596.316 350.049,596.483 349,597.5C 348.275,595.842 347.108,595.342 345.5,596C 346.863,598.129 346.529,598.629 344.5,597.5C 344.511,598.441 344.011,599.108 343,599.5C 342.5,599.167 342,598.833 341.5,598.5C 342.246,597.264 342.579,595.93 342.5,594.5C 325.497,594.667 308.497,594.5 291.5,594C 288.768,593.587 286.101,592.92 283.5,592C 281.456,591.502 280.122,590.335 279.5,588.5C 283.155,590.829 287.155,592.163 291.5,592.5C 308.833,592.5 326.167,592.5 343.5,592.5C 343.5,587.5 343.5,582.5 343.5,577.5C 347.813,572.074 353.479,570.074 360.5,571.5C 360.334,562.161 360.5,552.827 361,543.5C 364.093,530.906 371.927,523.239 384.5,520.5C 395.167,520.833 395.167,521.167 384.5,521.5C 384.5,522.5 384.5,523.5 384.5,524.5C 395.147,525.009 395.147,525.842 384.5,527C 383.289,527.893 383.289,528.726 384.5,529.5C 388.251,527.503 392.251,527.003 396.5,528C 393.118,528.176 389.785,528.676 386.5,529.5C 428.167,530.833 469.833,530.833 511.5,529.5C 482.015,528.901 452.348,528.401 422.5,528C 423.791,524.975 423.124,524.641 420.5,527C 420.833,527.333 421.167,527.667 421.5,528C 413.5,528.667 405.5,528.667 397.5,528C 404.833,527.667 412.167,527.333 419.5,527C 415.459,526.827 411.459,526.327 407.5,525.5C 417.5,524.167 427.5,524.167 437.5,525.5C 433.204,526.328 428.871,526.828 424.5,527C 434.5,527.667 444.5,527.667 454.5,527C 449.136,526.829 443.802,526.329 438.5,525.5C 439.376,524.749 440.376,524.249 441.5,524C 441.167,523.667 440.833,523.333 440.5,523C 429.485,522.832 418.485,522.332 407.5,521.5C 434.664,520.833 461.664,520.167 488.5,519.5C 490.307,509.745 489.473,500.078 486,490.5C 485.148,489.429 484.315,488.429 483.5,487.5C 476.155,473.23 464.322,465.897 448,465.5C 426.239,466.918 412.572,478.251 407,499.5C 406.5,506.158 406.334,512.825 406.5,519.5C 405.849,518.909 405.182,518.243 404.5,517.5C 404.167,517.833 403.833,518.167 403.5,518.5C 404.246,519.736 404.579,521.07 404.5,522.5C 402.857,522.48 401.524,523.147 400.5,524.5C 399.858,521.203 398.691,520.869 397,523.5C 396.308,522.975 395.808,522.308 395.5,521.5C 396.309,519.208 396.643,517.041 396.5,515C 395.697,510.586 395.197,506.086 395,501.5C 394.667,507.5 394.333,513.5 394,519.5C 393.829,512.321 393.329,505.321 392.5,498.5C 377.695,466.219 362.862,433.886 348,401.5C 330.454,386.432 326.454,368.432 336,347.5C 363.11,318.385 391.11,289.718 420,261.5C 422.492,244.977 430.992,232.811 445.5,225C 468.599,217.811 486.599,224.478 499.5,245C 523.656,262.911 547.99,280.578 572.5,298C 588.99,301.334 599.99,310.834 605.5,326.5C 606.834,341.157 601.667,352.824 590,361.5C 589.5,368.826 589.334,376.159 589.5,383.5C 594.833,383.5 600.167,383.5 605.5,383.5C 606.731,384.718 607.898,386.051 609,387.5C 609.667,396.833 609.667,406.167 609,415.5C 607.369,418.226 605.202,420.393 602.5,422C 605.674,428.171 607.174,434.671 607,441.5C 602.464,450.744 597.297,459.577 591.5,468C 585.708,469.871 582.041,467.871 580.5,462C 584.78,453.441 588.78,444.774 592.5,436C 591.595,431.618 590.095,427.452 588,423.5C 577.248,422.513 566.415,422.18 555.5,422.5C 554.535,427.56 552.869,432.393 550.5,437C 553.848,444.197 557.348,451.364 561,458.5C 561.667,460.833 561.667,463.167 561,465.5C 556.667,470.833 552.333,470.833 548,465.5C 547.284,463.121 546.117,461.121 544.5,459.5C 542.289,453.407 539.789,447.407 537,441.5C 536.925,434.541 538.425,427.874 541.5,421.5C 540.311,420.571 538.978,420.238 537.5,420.5C 536.164,418.99 534.997,417.323 534,415.5C 533.333,406.167 533.333,396.833 534,387.5C 535.167,386.333 536.333,385.167 537.5,384C 543.157,383.501 548.824,383.334 554.5,383.5C 554.666,376.492 554.5,369.492 554,362.5C 551.708,361.21 549.708,359.543 548,357.5C 545.785,352.9 542.952,348.734 539.5,345C 518.331,331.916 497.331,318.583 476.5,305C 470.733,302.3 465.9,303.467 462,308.5C 445.619,328.546 429.619,348.88 414,369.5C 413.333,370.5 413.333,371.5 414,372.5C 434.722,400.889 455.055,429.556 475,458.5C 496.33,473.167 505.83,493.5 503.5,519.5C 520.228,519.401 530.728,527.401 535,543.5C 535.5,552.827 535.666,562.161 535.5,571.5C 543.148,570.003 549.148,572.336 553.5,578.5C 553.5,583.167 553.5,587.833 553.5,592.5C 613.501,592.667 673.501,592.5 733.5,592C 737.787,591.19 741.454,589.357 744.5,586.5C 746.735,585.772 748.568,584.439 750,582.5C 754.005,577.489 756.672,571.822 758,565.5C 758.667,517.167 758.667,468.833 758,420.5C 751.997,415.329 746.163,409.996 740.5,404.5C 735.703,399.202 730.703,394.035 725.5,389C 724.207,388.51 722.873,388.343 721.5,388.5C 721.171,401.344 721.505,414.011 722.5,426.5C 736.35,437.034 737.016,448.534 724.5,461C 712.479,466.356 702.645,463.856 695,453.5C 690.713,439.744 695.213,430.411 708.5,425.5C 708.5,411.167 708.5,396.833 708.5,382.5C 706.109,380.385 704.776,377.719 704.5,374.5C 703.127,374.343 701.793,374.51 700.5,375C 694.667,380.833 688.833,386.667 683,392.5C 682.667,397.5 682.333,402.5 682,407.5C 678.147,418.014 670.647,422.181 659.5,420C 647.044,414.575 643.21,405.408 648,392.5C 654.175,383.22 662.508,380.553 673,384.5C 677.964,380.704 682.464,376.371 686.5,371.5C 687.289,371.217 687.956,370.717 688.5,370C 680.167,361.667 671.833,353.333 663.5,345C 658.301,346.086 652.967,346.586 647.5,346.5C 637.318,341.793 632.818,333.793 634,322.5C 638.046,311.443 645.879,306.609 657.5,308C 670.452,312.903 674.786,321.903 670.5,335C 678.5,343 686.5,351 694.5,359C 698.417,360.691 702.417,360.857 706.5,359.5C 708.549,356.45 711.216,354.117 714.5,352.5C 715.833,345.5 715.833,338.5 714.5,331.5C 710.894,329.397 707.727,326.731 705,323.5C 699.514,310.487 703.014,300.821 715.5,294.5C 730.339,292.334 739.006,298.668 741.5,313.5C 741.104,317.352 740.104,321.019 738.5,324.5C 735.445,327.718 731.945,330.384 728,332.5C 727.333,338.833 727.333,345.167 728,351.5C 733.046,354.049 736.88,357.716 739.5,362.5C 745.645,363.49 751.978,363.823 758.5,363.5C 758.667,322.832 758.5,282.165 758,241.5C 757.626,239.509 756.793,237.842 755.5,236.5C 753.581,231.58 750.248,227.913 745.5,225.5C 744.505,236.321 744.172,247.321 744.5,258.5C 746.5,258.5 748.5,258.5 750.5,258.5C 751.167,258.5 751.833,258.5 752.5,258.5C 756.757,263.207 756.424,267.541 751.5,271.5C 699.167,271.5 646.833,271.5 594.5,271.5C 589.281,267.034 589.281,262.701 594.5,258.5C 597.391,257.597 600.391,257.264 603.5,257.5C 603.5,238.833 603.5,220.167 603.5,201.5C 570.167,201.5 536.833,201.5 503.5,201.5C 491.216,191.687 478.55,182.354 465.5,173.5C 452.893,182.104 440.56,191.104 428.5,200.5C 428.44,199.957 428.107,199.624 427.5,199.5C 402.372,200.158 377.372,200.824 352.5,201.5C 352.5,201.833 352.5,202.167 352.5,202.5C 351.502,225.327 351.169,248.327 351.5,271.5C 350.395,272.6 349.062,273.267 347.5,273.5C 319.5,273.5 291.5,273.5 263.5,273.5C 263.171,287.01 263.504,300.344 264.5,313.5C 278.327,314.331 292.327,314.831 306.5,315C 307.416,315.278 308.082,315.778 308.5,316.5C 293.83,316.333 279.163,316.5 264.5,317C 264.167,317.333 263.833,317.667 263.5,318C 271.167,318.333 278.833,318.667 286.5,319C 281.582,319.195 276.749,319.695 272,320.5C 270.703,319.216 269.536,319.383 268.5,321C 269.345,322.558 268.679,323.558 266.5,324C 267.328,324.915 268.328,325.581 269.5,326C 268.833,326.333 268.167,326.667 267.5,327C 269.978,328.938 270.145,331.105 268,333.5C 267.316,332.216 267.483,331.049 268.5,330C 267.584,329.626 266.75,329.126 266,328.5C 265.216,334.988 264.383,341.322 263.5,347.5C 263.5,340.833 263.5,334.167 263.5,327.5C 257.167,327.5 250.833,327.5 244.5,327.5C 243.672,333.987 243.172,340.654 243,347.5C 242.814,340.586 242.314,333.753 241.5,327C 242.622,325.387 242.122,324.22 240,323.5C 239.508,322.451 239.674,321.451 240.5,320.5C 240.192,319.692 239.692,319.025 239,318.5C 236.333,319.833 233.667,319.833 231,318.5C 229.518,320.781 227.851,320.781 226,318.5C 224.414,319.376 222.914,320.376 221.5,321.5C 220.289,320.726 220.289,319.893 221.5,319C 219.5,318.333 217.5,318.333 215.5,319C 216.863,321.129 216.529,321.629 214.5,320.5C 213.692,320.808 213.025,321.308 212.5,322C 215.014,324.376 218.014,325.043 221.5,324C 220.304,323.346 220.304,322.846 221.5,322.5C 224.632,323.978 227.965,324.978 231.5,325.5C 231.137,326.183 230.804,326.85 230.5,327.5C 224.167,327.5 217.833,327.5 211.5,327.5C 211.5,334.167 211.5,340.833 211.5,347.5C 210.5,343.268 210.166,338.268 210.5,332.5C 209.178,332.67 208.011,332.337 207,331.5C 206.529,329.754 205.862,328.087 205,326.5C 204.25,327.126 203.416,327.626 202.5,328C 205.228,328.639 205.728,329.806 204,331.5C 202.684,330.026 201.684,328.359 201,326.5C 200.667,333.5 200.333,340.5 200,347.5C 199.828,340.654 199.328,333.987 198.5,327.5C 191.167,327.5 183.833,327.5 176.5,327.5C 176.5,334.167 176.5,340.833 176.5,347.5C 183.655,348.329 190.989,348.829 198.5,349C 191.117,349.2 183.784,349.7 176.5,350.5C 176.167,350.167 175.833,349.833 175.5,349.5C 174.191,345.302 174.191,341.136 175.5,337C 172.758,332.203 173.091,327.536 176.5,323C 175.5,322 174.5,321 173.5,320C 176.244,320.019 178.911,320.686 181.5,322C 180.062,322.219 178.729,322.719 177.5,323.5C 182.048,324.192 186.548,324.859 191,325.5C 193.147,324.887 195.314,324.221 197.5,323.5C 196.092,322.757 194.759,321.923 193.5,321C 195.286,320.804 196.619,319.971 197.5,318.5C 214.153,317.501 230.82,317.167 247.5,317.5C 247.421,318.93 247.754,320.264 248.5,321.5C 246.887,322.427 245.221,323.261 243.5,324C 250.759,324.4 257.425,324.233 263.5,323.5C 259.05,323.111 254.383,322.444 249.5,321.5C 253.5,320.833 257.5,320.167 261.5,319.5C 260.572,318.232 260.405,316.899 261,315.5C 261.893,316.711 262.726,316.711 263.5,315.5C 262.851,302.865 262.185,290.199 261.5,277.5C 260.549,278.326 259.549,278.492 258.5,278C 258.201,276.68 258.034,275.18 258,273.5C 257.311,272.643 256.478,271.977 255.5,271.5C 254.702,273.078 254.202,274.744 254,276.5C 253.667,275.833 253.333,275.167 253,274.5C 252.667,286.833 252.333,299.167 252,311.5C 251.79,313.058 251.29,314.391 250.5,315.5C 250.5,301.833 250.5,288.167 250.5,274.5C 246.688,273.676 242.688,273.176 238.5,273C 236.671,272.727 235.171,271.893 234,270.5C 233.333,234.5 233.333,198.5 234,162.5C 234.903,161.299 236.069,160.465 237.5,160C 274.165,159.5 310.832,159.333 347.5,159.5C 349.017,159.511 350.184,160.177 351,161.5C 351.5,170.16 351.666,178.827 351.5,187.5C 362.981,188.832 374.814,189.499 387,189.5C 399.005,189.5 410.838,189.167 422.5,188.5C 435.267,178.913 447.933,169.079 460.5,159C 464.087,156.851 467.42,157.184 470.5,160C 480.684,167.363 490.684,174.863 500.5,182.5C 503.039,185.19 506.039,187.357 509.5,189C 537.5,189.667 565.5,189.667 593.5,189C 596.756,187.884 599.422,186.051 601.5,183.5C 615.767,173.355 630.1,163.189 644.5,153C 653.703,146.901 663.037,141.068 672.5,135.5C 701.964,153.735 731.297,172.235 760.5,191C 763.167,194.333 763.167,197.667 760.5,201C 755.599,202.325 750.599,202.825 745.5,202.5C 745.187,205.247 745.52,207.914 746.5,210.5C 758.338,215.67 766.338,224.336 770.5,236.5 Z"/></g>
<g><path style="opacity:1" fill="#52a2ea" d="M 422.5,278.5 C 426.205,283.391 430.205,288.224 434.5,293C 439.162,296.666 444.162,299.833 449.5,302.5C 436.189,318.979 422.689,335.312 409,351.5C 401.961,338.214 391.127,329.547 376.5,325.5C 391.855,309.813 407.188,294.146 422.5,278.5 Z"/></g>
<g><path style="opacity:1" fill="#7cbbee" d="M 351.5,271.5 C 351.426,273.411 350.426,274.578 348.5,275C 320.835,275.5 293.169,275.667 265.5,275.5C 265.828,286.014 265.494,296.347 264.5,306.5C 264.5,295.833 264.5,285.167 264.5,274.5C 292.338,274.831 320.005,274.498 347.5,273.5C 349.062,273.267 350.395,272.6 351.5,271.5 Z"/></g>
<g><path style="opacity:1" fill="#000f27" d="M 347.5,273.5 C 320.005,274.498 292.338,274.831 264.5,274.5C 264.5,285.167 264.5,295.833 264.5,306.5C 264.5,308.833 264.5,311.167 264.5,313.5C 263.504,300.344 263.171,287.01 263.5,273.5C 291.5,273.5 319.5,273.5 347.5,273.5 Z"/></g>
<g><path style="opacity:1" fill="#51b1f5" d="M 594.5,271.5 C 646.833,271.5 699.167,271.5 751.5,271.5C 750.737,272.268 749.737,272.768 748.5,273C 698.167,273.667 647.833,273.667 597.5,273C 596.263,272.768 595.263,272.268 594.5,271.5 Z"/></g>
<g><path style="opacity:1" fill="#52a2ea" d="M 501.5,263.5 C 519.906,276.399 537.906,289.899 555.5,304C 546.906,310.101 541.239,318.268 538.5,328.5C 520.997,317.583 503.663,306.416 486.5,295C 495.941,286.617 500.941,276.117 501.5,263.5 Z"/></g>
<g><path style="opacity:1" fill="#1c4e7b" d="M 337.5,172.5 C 338.498,201.995 338.831,231.662 338.5,261.5C 307.662,261.831 276.995,261.498 246.5,260.5C 276.833,260.5 307.167,260.5 337.5,260.5C 337.5,231.167 337.5,201.833 337.5,172.5 Z"/></g>
<g><path style="opacity:1" fill="#3773a6" d="M 745.5,225.5 C 745.5,236.167 745.5,246.833 745.5,257.5C 747.415,257.216 749.081,257.549 750.5,258.5C 748.5,258.5 746.5,258.5 744.5,258.5C 744.172,247.321 744.505,236.321 745.5,225.5 Z"/></g>
<g><path style="opacity:1" fill="#65b6f1" d="M 659.5,202.5 C 668.833,202.5 678.167,202.5 687.5,202.5C 687.5,220.833 687.5,239.167 687.5,257.5C 677.833,257.5 668.167,257.5 658.5,257.5C 658.17,238.992 658.503,220.659 659.5,202.5 Z"/></g>
<g><path style="opacity:1" fill="#80c8fb" d="M 617.5,202.5 C 618.239,202.369 618.906,202.536 619.5,203C 618.508,220.757 618.174,238.59 618.5,256.5C 626.833,256.5 635.167,256.5 643.5,256.5C 643.17,239.658 643.503,222.992 644.5,206.5C 644.5,223.5 644.5,240.5 644.5,257.5C 635.5,257.5 626.5,257.5 617.5,257.5C 617.5,239.167 617.5,220.833 617.5,202.5 Z"/></g>
<g><path style="opacity:1" fill="#85cdfb" d="M 503.5,201.5 C 536.833,201.5 570.167,201.5 603.5,201.5C 603.5,220.167 603.5,238.833 603.5,257.5C 600.391,257.264 597.391,257.597 594.5,258.5C 596.635,256.631 599.302,255.964 602.5,256.5C 602.5,238.5 602.5,220.5 602.5,202.5C 569.329,202.832 536.329,202.498 503.5,201.5 Z"/></g>
<g><path style="opacity:1" fill="#50a2eb" d="M 745.5,225.5 C 750.248,227.913 753.581,231.58 755.5,236.5C 756.574,244.798 756.74,253.132 756,261.5C 755.578,259.574 754.411,258.574 752.5,258.5C 751.833,258.5 751.167,258.5 750.5,258.5C 749.081,257.549 747.415,257.216 745.5,257.5C 745.5,246.833 745.5,236.167 745.5,225.5 Z"/></g>
<g><path style="opacity:1" fill="#52a2ea" d="M 481.5,279.5 C 476.103,286.367 468.936,289.7 460,289.5C 448.004,288.173 440.004,281.84 436,270.5C 432.662,256.993 436.829,246.659 448.5,239.5C 448.56,240.043 448.893,240.376 449.5,240.5C 466.183,233.669 478.349,238.335 486,254.5C 486.804,260.569 486.471,266.569 485,272.5C 484.626,273.416 484.126,274.25 483.5,275C 482.262,274.923 481.262,275.089 480.5,275.5C 481.025,276.192 481.692,276.692 482.5,277C 481.748,277.671 481.414,278.504 481.5,279.5 Z"/></g>
<g><path style="opacity:1" fill="#0f2331" d="M 458.5,250.5 C 472.833,251.836 476.667,258.836 470,271.5C 465.11,274.784 459.944,275.284 454.5,273C 446.797,263.729 448.13,256.229 458.5,250.5 Z"/></g>
<g><path style="opacity:1" fill="#61ade3" d="M 481.5,279.5 C 481.414,278.504 481.748,277.671 482.5,277C 481.692,276.692 481.025,276.192 480.5,275.5C 481.262,275.089 482.262,274.923 483.5,275C 484.126,274.25 484.626,273.416 485,272.5C 486.471,266.569 486.804,260.569 486,254.5C 478.349,238.335 466.183,233.669 449.5,240.5C 448.893,240.376 448.56,240.043 448.5,239.5C 465.693,231.836 478.527,236.503 487,253.5C 489.792,263.258 487.958,271.924 481.5,279.5 Z"/></g>
<g><path style="opacity:1" fill="#275f8b" d="M 659.5,202.5 C 668.986,201.506 678.652,201.173 688.5,201.5C 688.83,220.341 688.497,239.007 687.5,257.5C 687.5,239.167 687.5,220.833 687.5,202.5C 678.167,202.5 668.833,202.5 659.5,202.5 Z"/></g>
<g><path style="opacity:1" fill="#6fc6fe" d="M 337.5,172.5 C 337.5,201.833 337.5,231.167 337.5,260.5C 307.167,260.5 276.833,260.5 246.5,260.5C 246.5,231.167 246.5,201.833 246.5,172.5C 276.833,172.5 307.167,172.5 337.5,172.5 Z"/></g>
<g><path style="opacity:1" fill="#65abdd" d="M 702.5,201.5 C 711.857,201.168 721.19,201.502 730.5,202.5C 731.487,220.787 731.82,239.12 731.5,257.5C 721.5,257.5 711.5,257.5 701.5,257.5C 701.922,238.835 702.255,220.169 702.5,201.5 Z"/></g>
<g><path style="opacity:1" fill="#4ea0e9" d="M 660.5,203.5 C 669.167,203.5 677.833,203.5 686.5,203.5C 686.5,221.167 686.5,238.833 686.5,256.5C 677.833,256.5 669.167,256.5 660.5,256.5C 660.5,238.833 660.5,221.167 660.5,203.5 Z"/></g>
<g><path style="opacity:1" fill="#4ea0ea" d="M 703.5,203.5 C 712.167,203.5 720.833,203.5 729.5,203.5C 729.5,221.167 729.5,238.833 729.5,256.5C 720.833,256.5 712.167,256.5 703.5,256.5C 703.5,238.833 703.5,221.167 703.5,203.5 Z"/></g>
<g><path style="opacity:1" fill="#4fa0ea" d="M 617.5,202.5 C 625.99,201.343 634.657,201.176 643.5,202C 644.38,203.356 644.714,204.856 644.5,206.5C 643.503,222.992 643.17,239.658 643.5,256.5C 635.167,256.5 626.833,256.5 618.5,256.5C 618.174,238.59 618.508,220.757 619.5,203C 618.906,202.536 618.239,202.369 617.5,202.5 Z"/></g>
<g><path style="opacity:1" fill="#6cc1fc" d="M 352.5,202.5 C 376.836,202.333 401.169,202.5 425.5,203C 401.502,203.5 377.502,203.667 353.5,203.5C 353.667,225.503 353.5,247.503 353,269.5C 352.5,247.169 352.333,224.836 352.5,202.5 Z"/></g>
<g><path style="opacity:1" fill="#00040d" d="M 428.5,200.5 C 403.241,201.49 377.908,201.823 352.5,201.5C 377.372,200.824 402.372,200.158 427.5,199.5C 428.107,199.624 428.44,199.957 428.5,200.5 Z"/></g>
<g><path style="opacity:1" fill="#151a1f" d="M 500.5,182.5 C 503.274,183.723 505.941,185.223 508.5,187C 537.167,187.667 565.833,187.667 594.5,187C 596.886,185.807 599.22,184.64 601.5,183.5C 599.422,186.051 596.756,187.884 593.5,189C 565.5,189.667 537.5,189.667 509.5,189C 506.039,187.357 503.039,185.19 500.5,182.5 Z"/></g>
<g><path style="opacity:1" fill="#000002" d="M 351.5,187.5 C 375.092,188.489 398.759,188.823 422.5,188.5C 410.838,189.167 399.005,189.5 387,189.5C 374.814,189.499 362.981,188.832 351.5,187.5 Z"/></g>
<g><path style="opacity:1" fill="#73c3fc" d="M 628.5,181.5 C 627.284,183.451 625.618,184.951 623.5,186C 640.333,186.167 657.167,186.333 674,186.5C 691.18,186.5 708.014,185.833 724.5,184.5C 726.745,184.541 727.412,185.375 726.5,187C 691.167,187.667 655.833,187.667 620.5,187C 622.704,184.406 625.37,182.572 628.5,181.5 Z"/></g>
<g><path style="opacity:1" fill="#4fa0ea" d="M 247.5,173.5 C 277.167,173.5 306.833,173.5 336.5,173.5C 336.5,202.167 336.5,230.833 336.5,259.5C 306.833,259.5 277.167,259.5 247.5,259.5C 247.5,230.833 247.5,202.167 247.5,173.5 Z"/></g>
<g><path style="opacity:1" fill="#79c6fa" d="M 272.5,188.5 C 271.164,190.01 269.997,191.677 269,193.5C 268.5,209.497 268.333,225.497 268.5,241.5C 267.338,225.339 267.172,209.005 268,192.5C 268.748,190.249 270.248,188.916 272.5,188.5 Z"/></g>
<g><path style="opacity:1" fill="#0f2432" d="M 272.5,188.5 C 279.082,188.284 285.082,190.117 290.5,194C 299.339,199.254 308.339,204.254 317.5,209C 323.755,213.267 324.088,217.933 318.5,223C 305.833,230.333 293.167,237.667 280.5,245C 275.215,247.784 271.215,246.618 268.5,241.5C 268.333,225.497 268.5,209.497 269,193.5C 269.997,191.677 271.164,190.01 272.5,188.5 Z"/></g>
<g><path style="opacity:1" fill="#58a7ec" d="M 282.5,205.5 C 287.691,208.506 293.024,211.339 298.5,214C 300.255,214.72 301.089,215.887 301,217.5C 295.248,220.96 289.415,224.293 283.5,227.5C 282.503,220.197 282.169,212.863 282.5,205.5 Z"/></g>
<g><path style="opacity:1" fill="#50a1ea" d="M 724.5,184.5 C 708.014,185.833 691.18,186.5 674,186.5C 657.167,186.333 640.333,186.167 623.5,186C 625.618,184.951 627.284,183.451 628.5,181.5C 642.793,171.015 657.46,161.015 672.5,151.5C 690.384,161.734 707.718,172.734 724.5,184.5 Z"/></g>
<g><path style="opacity:1" fill="#6ab2ea" d="M 738.5,324.5 C 740.104,321.019 741.104,317.352 741.5,313.5C 739.006,298.668 730.339,292.334 715.5,294.5C 723.164,290.94 730.497,292.606 737.5,299.5C 743.638,307.789 743.972,316.122 738.5,324.5 Z"/></g>
<g><path style="opacity:1" fill="#000104" d="M 770.5,236.5 C 771.301,238.042 771.634,239.708 771.5,241.5C 771.667,281.501 771.5,321.501 771,361.5C 770.822,320.478 770.322,279.478 769.5,238.5C 769.543,237.584 769.876,236.917 770.5,236.5 Z"/></g>
<g><path style="opacity:1" fill="#5ba8e8" d="M 755.5,236.5 C 756.793,237.842 757.626,239.509 758,241.5C 758.5,282.165 758.667,322.832 758.5,363.5C 751.978,363.823 745.645,363.49 739.5,362.5C 744.858,362.42 750.525,362.42 756.5,362.5C 756.667,331.165 756.5,299.832 756,268.5C 754.871,270.141 753.371,271.141 751.5,271.5C 756.424,267.541 756.757,263.207 752.5,258.5C 754.411,258.574 755.578,259.574 756,261.5C 756.74,253.132 756.574,244.798 755.5,236.5 Z"/></g>
<g><path style="opacity:1" fill="#54a4ea" d="M 718.5,307.5 C 727.555,306.814 729.888,310.481 725.5,318.5C 718.202,320.701 715.036,318.034 716,310.5C 717.045,309.627 717.878,308.627 718.5,307.5 Z"/></g>
<g><path style="opacity:1" fill="#52a2ea" d="M 567.5,313.5 C 583.999,313.164 591.832,321.164 591,337.5C 585.271,352.277 575.105,356.443 560.5,350C 549.833,339 549.833,328 560.5,317C 562.925,315.787 565.259,314.621 567.5,313.5 Z"/></g>
<g><path style="opacity:1" fill="#57a4e6" d="M 649.5,320.5 C 658.745,319.899 661.411,323.732 657.5,332C 653.22,334.477 649.72,333.644 647,329.5C 645.927,325.9 646.76,322.9 649.5,320.5 Z"/></g>
<g><path style="opacity:1" fill="#52a3e9" d="M 819.5,331.5 C 829.267,331.073 831.6,334.906 826.5,343C 820.911,344.545 817.578,342.545 816.5,337C 816.863,334.808 817.863,332.974 819.5,331.5 Z"/></g>
<g><path style="opacity:1" fill="#65abde" d="M 686.5,371.5 C 678.926,362.421 670.759,353.755 662,345.5C 657.176,347.623 652.343,347.956 647.5,346.5C 652.967,346.586 658.301,346.086 663.5,345C 671.833,353.333 680.167,361.667 688.5,370C 687.956,370.717 687.289,371.217 686.5,371.5 Z"/></g>
<g><path style="opacity:1" fill="#6ab1e6" d="M 605.5,326.5 C 608.22,341.413 603.386,353.413 591,362.5C 590.5,369.158 590.334,375.825 590.5,382.5C 595.695,382.179 600.695,382.513 605.5,383.5C 600.167,383.5 594.833,383.5 589.5,383.5C 589.334,376.159 589.5,368.826 590,361.5C 601.667,352.824 606.834,341.157 605.5,326.5 Z"/></g>
<g><path style="opacity:1" fill="#010106" d="M 250.5,315.5 C 223.003,316.332 195.336,316.832 167.5,317C 166.584,317.374 165.75,317.874 165,318.5C 163.844,362.918 163.011,407.252 162.5,451.5C 162.01,406.748 162.51,362.082 164,317.5C 164.75,316.874 165.584,316.374 166.5,316C 194.498,315.5 222.498,315.333 250.5,315.5 Z"/></g>
<g><path style="opacity:1" fill="#51a1ea" d="M 364.5,340.5 C 380.665,338.66 391.498,345.326 397,360.5C 399.314,376.717 392.814,387.55 377.5,393C 361.382,395.356 350.549,388.856 345,373.5C 343.143,361.713 346.976,352.213 356.5,345C 359.391,343.726 362.058,342.226 364.5,340.5 Z"/></g>
<g><path style="opacity:1" fill="#0f2331" d="M 366.5,355.5 C 379.491,353.992 384.658,359.659 382,372.5C 378.268,378.046 373.101,379.879 366.5,378C 361.058,374.684 358.891,369.851 360,363.5C 361.305,360.039 363.471,357.372 366.5,355.5 Z"/></g>
<g><path style="opacity:1" fill="#6bb6ed" d="M 566.5,366.5 C 569.833,366.5 573.167,366.5 576.5,366.5C 576.5,372.167 576.5,377.833 576.5,383.5C 573.167,383.5 569.833,383.5 566.5,383.5C 566.5,377.833 566.5,372.167 566.5,366.5 Z"/></g>
<g><path style="opacity:1" fill="#4e9fe9" d="M 568.5,367.5 C 570.833,367.5 573.167,367.5 575.5,367.5C 575.5,372.5 575.5,377.5 575.5,382.5C 573.167,382.5 570.833,382.5 568.5,382.5C 568.5,377.5 568.5,372.5 568.5,367.5 Z"/></g>
<g><path style="opacity:1" fill="#53a5ec" d="M 719.5,363.5 C 724.894,362.398 727.894,364.565 728.5,370C 727.089,375.141 723.755,376.808 718.5,375C 715.681,370.899 716.014,367.065 719.5,363.5 Z"/></g>
<g><path style="opacity:1" fill="#05070b" d="M 772.5,419.5 C 775.5,422.833 778.5,426.167 781.5,429.5C 777.598,427.107 774.098,424.107 771,420.5C 770.333,405.5 770.333,390.5 771,375.5C 771.169,390.339 771.669,405.006 772.5,419.5 Z"/></g>
<g><path style="opacity:1" fill="#76c9fe" d="M 708.5,382.5 C 708.5,396.833 708.5,411.167 708.5,425.5C 707.825,411.431 707.159,397.265 706.5,383C 707.094,382.536 707.761,382.369 708.5,382.5 Z"/></g>
<g><path style="opacity:1" fill="#76bdef" d="M 738.5,376.5 C 744.833,376.5 751.167,376.5 757.5,376.5C 757.666,385.506 757.5,394.506 757,403.5C 750.333,396.833 743.667,390.167 737,383.5C 736.865,381.078 737.365,378.745 738.5,376.5 Z"/></g>
<g><path style="opacity:1" fill="#4ea0ea" d="M 739.5,377.5 C 745.167,377.5 750.833,377.5 756.5,377.5C 756.666,385.174 756.5,392.841 756,400.5C 749.833,394.333 743.667,388.167 737.5,382C 738.582,380.67 739.249,379.17 739.5,377.5 Z"/></g>
<g><path style="opacity:1" fill="#50a0ea" d="M 423.5,410.5 C 428.235,415.632 432.235,421.299 435.5,427.5C 439.86,435.372 444.86,442.872 450.5,450C 446.577,450.793 442.744,450.626 439,449.5C 434.87,451.598 430.703,453.598 426.5,455.5C 416.311,460.687 407.978,468.02 401.5,477.5C 401.19,476.262 400.69,476.262 400,477.5C 389.602,456.519 379.435,435.019 369.5,413C 370.833,412.667 372.167,412.333 373.5,412C 371.754,411.529 370.087,410.862 368.5,410C 374.372,409.552 379.372,408.385 383.5,406.5C 386.314,404.93 389.314,403.597 392.5,402.5C 398.397,399.274 403.397,394.941 407.5,389.5C 412.611,396.748 417.944,403.748 423.5,410.5 Z"/></g>
<g><path style="opacity:1" fill="#4da1eb" d="M 546.5,399.5 C 546.5,399.167 546.5,398.833 546.5,398.5C 562.833,398.5 579.167,398.5 595.5,398.5C 595.5,401.5 595.5,404.5 595.5,407.5C 579.5,407.5 563.5,407.5 547.5,407.5C 547.806,404.615 547.473,401.948 546.5,399.5 Z"/></g>
<g><path style="opacity:1" fill="#75c2fb" d="M 740.5,404.5 C 734.576,399.917 728.909,394.917 723.5,389.5C 722.543,402.123 722.21,414.456 722.5,426.5C 721.505,414.011 721.171,401.344 721.5,388.5C 722.873,388.343 724.207,388.51 725.5,389C 730.703,394.035 735.703,399.202 740.5,404.5 Z"/></g>
<g><path style="opacity:1" fill="#65b0e8" d="M 423.5,410.5 C 417.944,403.748 412.611,396.748 407.5,389.5C 403.397,394.941 398.397,399.274 392.5,402.5C 397.812,397.854 402.812,392.854 407.5,387.5C 413.58,394.664 418.913,402.33 423.5,410.5 Z"/></g>
<g><path style="opacity:1" fill="#54a4e9" d="M 828.5,396.5 C 835.314,396.49 837.814,399.823 836,406.5C 832.412,410.393 828.746,410.393 825,406.5C 823.581,402.082 824.748,398.749 828.5,396.5 Z"/></g>
<g><path style="opacity:1" fill="#03050a" d="M 264.5,313.5 C 278.837,313.333 293.171,313.5 307.5,314C 308.931,314.465 310.097,315.299 311,316.5C 311.5,361.499 311.667,406.499 311.5,451.5C 311.5,451.833 311.5,452.167 311.5,452.5C 310.667,407.669 310.167,362.669 310,317.5C 309.617,316.944 309.117,316.611 308.5,316.5C 308.082,315.778 307.416,315.278 306.5,315C 292.327,314.831 278.327,314.331 264.5,313.5 Z"/></g>
<g><path style="opacity:1" fill="#5aa6e7" d="M 661.5,395.5 C 669.505,394.342 672.339,397.675 670,405.5C 666.333,409.5 662.667,409.5 659,405.5C 657.863,401.537 658.697,398.204 661.5,395.5 Z"/></g>
<g><path style="opacity:1" fill="#7dc7f9" d="M 546.5,398.5 C 562.992,397.503 579.658,397.17 596.5,397.5C 596.5,401.167 596.5,404.833 596.5,408.5C 579.833,408.5 563.167,408.5 546.5,408.5C 546.5,405.5 546.5,402.5 546.5,399.5C 547.473,401.948 547.806,404.615 547.5,407.5C 563.5,407.5 579.5,407.5 595.5,407.5C 595.5,404.5 595.5,401.5 595.5,398.5C 579.167,398.5 562.833,398.5 546.5,398.5 Z"/></g>
<g><path style="opacity:1" fill="#65ade7" d="M 383.5,406.5 C 379.372,408.385 374.372,409.552 368.5,410C 370.087,410.862 371.754,411.529 373.5,412C 372.167,412.333 370.833,412.667 369.5,413C 379.435,435.019 389.602,456.519 400,477.5C 400.69,476.262 401.19,476.262 401.5,477.5C 400.86,479.332 399.86,479.665 398.5,478.5C 387.437,454.964 376.771,431.298 366.5,407.5C 372.203,407.625 377.87,407.292 383.5,406.5 Z"/></g>
<g><path style="opacity:1" fill="#68afe5" d="M 537.5,420.5 C 538.978,420.238 540.311,420.571 541.5,421.5C 538.425,427.874 536.925,434.541 537,441.5C 539.789,447.407 542.289,453.407 544.5,459.5C 540.41,452.981 537.076,445.981 534.5,438.5C 536.066,433.302 537.733,428.136 539.5,423C 538.944,421.989 538.278,421.156 537.5,420.5 Z"/></g>
<g><path style="opacity:1" fill="#52a3ea" d="M 709.5,437.5 C 719.525,436.731 722.525,440.898 718.5,450C 712.007,453.084 707.674,451.25 705.5,444.5C 706.071,441.687 707.404,439.354 709.5,437.5 Z"/></g>
<g><path style="opacity:1" fill="#0f2534" d="M 176.5,347.5 C 183.833,347.5 191.167,347.5 198.5,347.5C 198.5,340.833 198.5,334.167 198.5,327.5C 199.328,333.987 199.828,340.654 200,347.5C 200.333,340.5 200.667,333.5 201,326.5C 201.684,328.359 202.684,330.026 204,331.5C 205.728,329.806 205.228,328.639 202.5,328C 203.416,327.626 204.25,327.126 205,326.5C 205.862,328.087 206.529,329.754 207,331.5C 208.011,332.337 209.178,332.67 210.5,332.5C 210.166,338.268 210.5,343.268 211.5,347.5C 218.167,347.5 224.833,347.5 231.5,347.5C 231.824,340.646 231.491,333.979 230.5,327.5C 230.804,326.85 231.137,326.183 231.5,325.5C 227.965,324.978 224.632,323.978 221.5,322.5C 220.304,322.846 220.304,323.346 221.5,324C 218.014,325.043 215.014,324.376 212.5,322C 213.025,321.308 213.692,320.808 214.5,320.5C 216.529,321.629 216.863,321.129 215.5,319C 217.5,318.333 219.5,318.333 221.5,319C 220.289,319.893 220.289,320.726 221.5,321.5C 222.914,320.376 224.414,319.376 226,318.5C 227.851,320.781 229.518,320.781 231,318.5C 233.667,319.833 236.333,319.833 239,318.5C 239.692,319.025 240.192,319.692 240.5,320.5C 239.674,321.451 239.508,322.451 240,323.5C 242.122,324.22 242.622,325.387 241.5,327C 242.314,333.753 242.814,340.586 243,347.5C 243.172,340.654 243.672,333.987 244.5,327.5C 244.5,334.167 244.5,340.833 244.5,347.5C 250.833,347.5 257.167,347.5 263.5,347.5C 264.383,341.322 265.216,334.988 266,328.5C 266.75,329.126 267.584,329.626 268.5,330C 267.483,331.049 267.316,332.216 268,333.5C 270.145,331.105 269.978,328.938 267.5,327C 268.167,326.667 268.833,326.333 269.5,326C 268.328,325.581 267.328,324.915 266.5,324C 268.679,323.558 269.345,322.558 268.5,321C 269.536,319.383 270.703,319.216 272,320.5C 276.749,319.695 281.582,319.195 286.5,319C 278.833,318.667 271.167,318.333 263.5,318C 263.833,317.667 264.167,317.333 264.5,317C 279.163,316.5 293.83,316.333 308.5,316.5C 309.117,316.611 309.617,316.944 310,317.5C 310.167,362.669 310.667,407.669 311.5,452.5C 310.5,454.167 309.167,455.5 307.5,456.5C 292.765,455.17 277.931,455.17 263,456.5C 261.89,454.963 260.39,454.297 258.5,454.5C 258.343,453.127 258.51,451.793 259,450.5C 260.184,452.654 261.35,452.32 262.5,449.5C 258.735,449.705 258.735,448.872 262.5,447C 257.167,446.667 251.833,446.333 246.5,446C 252.348,445.827 258.015,445.327 263.5,444.5C 263.5,437.5 263.5,430.5 263.5,423.5C 257.108,421.986 250.441,420.652 243.5,419.5C 246.639,419.262 249.639,418.762 252.5,418C 249.728,417.474 247.062,416.641 244.5,415.5C 269.618,413.219 269.618,412.385 244.5,413C 243.376,413.249 242.376,413.749 241.5,414.5C 242.811,415.258 243.311,416.258 243,417.5C 241.68,417.799 240.18,417.966 238.5,418C 238.167,419 237.833,420 237.5,421C 235.633,421.711 234.133,421.211 233,419.5C 231.302,420.733 229.302,421.4 227,421.5C 225.167,421.333 223.333,421.167 221.5,421C 224.167,420.667 226.833,420.333 229.5,420C 229.957,419.586 230.291,419.086 230.5,418.5C 225.279,417.376 225.279,416.542 230.5,416C 231.337,414.989 231.67,413.822 231.5,412.5C 224.646,412.824 217.979,412.491 211.5,411.5C 218.167,411.5 224.833,411.5 231.5,411.5C 233.379,411.393 233.712,411.893 232.5,413C 233.931,414.562 235.431,416.062 237,417.5C 239.316,416.478 239.816,414.978 238.5,413C 240.101,412.727 241.601,412.227 243,411.5C 243.172,404.987 243.672,398.653 244.5,392.5C 250.653,391.672 256.987,391.172 263.5,391C 257.175,390.5 250.842,390.334 244.5,390.5C 244.5,389.167 244.5,387.833 244.5,386.5C 245.675,386.719 246.675,386.386 247.5,385.5C 246.167,384.5 244.833,383.5 243.5,382.5C 250.525,381.8 257.525,381.133 264.5,380.5C 265.664,373.858 265.831,367.192 265,360.5C 264.617,359.944 264.117,359.611 263.5,359.5C 256.646,359.176 249.979,359.509 243.5,360.5C 242.672,366.653 242.172,372.987 242,379.5C 241.482,374.719 240.148,374.386 238,378.5C 235.453,373.135 234.62,373.302 235.5,379C 235,379.5 234.5,380 234,380.5C 233.667,373.5 233.333,366.5 233,359.5C 232.828,366.346 232.328,373.013 231.5,379.5C 231.5,372.833 231.5,366.167 231.5,359.5C 224.018,358.508 216.352,358.175 208.5,358.5C 208.703,356.61 208.037,355.11 206.5,354C 203.895,353.705 201.229,352.871 198.5,351.5C 198.5,353.167 198.5,354.833 198.5,356.5C 191.492,356.334 184.492,356.5 177.5,357C 175.381,357.342 175.047,358.175 176.5,359.5C 176.5,360.167 176.5,360.833 176.5,361.5C 176.5,367.167 176.5,372.833 176.5,378.5C 183.648,379.492 190.981,379.825 198.5,379.5C 198.5,373.167 198.5,366.833 198.5,360.5C 199.328,366.653 199.828,372.987 200,379.5C 200.333,371.833 200.667,364.167 201,356.5C 202.067,358.283 203.567,358.783 205.5,358C 204.304,357.346 204.304,356.846 205.5,356.5C 206.421,358.756 208.088,359.756 210.5,359.5C 210.938,362.893 210.105,365.893 208,368.5C 207.5,368 207,367.5 206.5,367C 209.533,365.263 210.033,363.097 208,360.5C 207.168,362.293 205.668,364.126 203.5,366C 204.801,367.973 206.801,369.973 209.5,372C 209.348,375.037 208.348,378.037 206.5,381C 213.167,381.333 219.833,381.667 226.5,382C 220.086,382.129 213.753,382.796 207.5,384C 209.375,386.198 209.375,388.031 207.5,389.5C 210.339,396.565 211.173,403.898 210,411.5C 209.668,408.494 208.834,405.66 207.5,403C 207.833,402.667 208.167,402.333 208.5,402C 207.207,401.51 205.873,401.343 204.5,401.5C 204.66,403.199 204.494,404.866 204,406.5C 202.853,405.542 201.853,405.875 201,407.5C 200.667,402.5 200.333,397.5 200,392.5C 199.828,399.013 199.328,405.347 198.5,411.5C 191.345,412.329 184.011,412.829 176.5,413C 183.059,414.255 189.726,414.922 196.5,415C 196.167,415.333 195.833,415.667 195.5,416C 196.5,416.333 197.5,416.667 198.5,417C 197.075,418.362 196.242,419.862 196,421.5C 191.333,420.167 186.667,420.167 182,421.5C 176.836,417.832 174.003,419.165 173.5,425.5C 174.145,431.675 174.811,437.841 175.5,444C 174.711,445.626 173.711,447.126 172.5,448.5C 173.035,450.271 173.869,450.604 175,449.5C 179.502,451.645 179.669,450.811 175.5,447C 177.387,446.837 178.887,447.671 180,449.5C 180.684,448.216 180.517,447.049 179.5,446C 186.013,445.828 192.347,445.328 198.5,444.5C 198.5,437.833 198.5,431.167 198.5,424.5C 199.328,430.987 199.828,437.654 200,444.5C 200.333,438.167 200.667,431.833 201,425.5C 202.458,426.747 203.958,426.747 205.5,425.5C 209.619,429.577 210.286,434.077 207.5,439C 207.944,440.762 208.444,440.595 209,438.5C 209.865,440.888 209.032,442.388 206.5,443C 208.247,443.352 209.914,443.852 211.5,444.5C 218.167,444.5 224.833,444.5 231.5,444.5C 232.117,444.389 232.617,444.056 233,443.5C 233.333,436.833 233.667,430.167 234,423.5C 235.2,425.412 236.867,426.745 239,427.5C 239.333,428.5 239.667,429.5 240,430.5C 240.973,428.608 241.64,426.608 242,424.5C 242.333,430.833 242.667,437.167 243,443.5C 243.172,436.654 243.672,429.987 244.5,423.5C 244.5,423.833 244.5,424.167 244.5,424.5C 244.5,431.167 244.5,437.833 244.5,444.5C 245.875,447.451 247.708,450.118 250,452.5C 251.366,448.234 254.199,446.734 258.5,448C 256.519,448.605 256.185,449.605 257.5,451C 255.438,452.532 254.104,454.532 253.5,457C 254.742,457.311 255.742,456.811 256.5,455.5C 257.308,455.808 257.975,456.308 258.5,457C 255.351,457.776 254.851,459.276 257,461.5C 259.466,457.337 260.299,457.504 259.5,462C 260,462.5 260.5,463 261,463.5C 261.333,461.5 261.667,459.5 262,457.5C 262.333,493.167 262.667,528.833 263,564.5C 263.167,528.664 263.667,492.998 264.5,457.5C 264.333,494.168 264.5,530.835 265,567.5C 265.81,571.787 267.643,575.454 270.5,578.5C 272.795,582.462 275.795,585.795 279.5,588.5C 280.122,590.335 281.456,591.502 283.5,592C 286.101,592.92 288.768,593.587 291.5,594C 308.497,594.5 325.497,594.667 342.5,594.5C 342.579,595.93 342.246,597.264 341.5,598.5C 342,598.833 342.5,599.167 343,599.5C 344.011,599.108 344.511,598.441 344.5,597.5C 346.529,598.629 346.863,598.129 345.5,596C 347.108,595.342 348.275,595.842 349,597.5C 350.049,596.483 351.216,596.316 352.5,597C 351.773,599.124 351.106,601.291 350.5,603.5C 331.512,604.5 312.512,604.833 293.5,604.5C 290.941,604.198 288.607,604.532 286.5,605.5C 269.435,601.435 258.102,591.101 252.5,574.5C 253.097,574.265 253.43,573.765 253.5,573C 252.842,534.694 252.175,496.527 251.5,458.5C 223.851,456.673 195.851,455.84 167.5,456C 166.756,454.961 165.756,454.461 164.5,454.5C 163.094,454.027 162.427,453.027 162.5,451.5C 163.011,407.252 163.844,362.918 165,318.5C 165.75,317.874 166.584,317.374 167.5,317C 195.336,316.832 223.003,316.332 250.5,315.5C 251.29,314.391 251.79,313.058 252,311.5C 252.333,299.167 252.667,286.833 253,274.5C 253.333,275.167 253.667,275.833 254,276.5C 254.202,274.744 254.702,273.078 255.5,271.5C 256.478,271.977 257.311,272.643 258,273.5C 258.034,275.18 258.201,276.68 258.5,278C 259.549,278.492 260.549,278.326 261.5,277.5C 262.185,290.199 262.851,302.865 263.5,315.5C 262.726,316.711 261.893,316.711 261,315.5C 260.405,316.899 260.572,318.232 261.5,319.5C 257.5,320.167 253.5,320.833 249.5,321.5C 254.383,322.444 259.05,323.111 263.5,323.5C 257.425,324.233 250.759,324.4 243.5,324C 245.221,323.261 246.887,322.427 248.5,321.5C 247.754,320.264 247.421,318.93 247.5,317.5C 230.82,317.167 214.153,317.501 197.5,318.5C 196.619,319.971 195.286,320.804 193.5,321C 194.759,321.923 196.092,322.757 197.5,323.5C 195.314,324.221 193.147,324.887 191,325.5C 186.548,324.859 182.048,324.192 177.5,323.5C 178.729,322.719 180.062,322.219 181.5,322C 178.911,320.686 176.244,320.019 173.5,320C 174.5,321 175.5,322 176.5,323C 173.091,327.536 172.758,332.203 175.5,337C 174.191,341.136 174.191,345.302 175.5,349.5C 175.833,349.833 176.167,350.167 176.5,350.5C 183.784,349.7 191.117,349.2 198.5,349C 190.989,348.829 183.655,348.329 176.5,347.5 Z"/></g>
<g><path style="opacity:1" fill="#6daddc" d="M 262.5,423.5 C 262.833,423.5 263.167,423.5 263.5,423.5C 263.5,430.5 263.5,437.5 263.5,444.5C 257.167,444.5 250.833,444.5 244.5,444.5C 244.5,437.833 244.5,431.167 244.5,424.5C 245.49,430.31 245.823,436.31 245.5,442.5C 251.167,442.5 256.833,442.5 262.5,442.5C 262.5,436.167 262.5,429.833 262.5,423.5 Z"/></g>
<g><path style="opacity:1" fill="#4fa1eb" d="M 244.5,424.5 C 244.5,424.167 244.5,423.833 244.5,423.5C 250.5,423.5 256.5,423.5 262.5,423.5C 262.5,429.833 262.5,436.167 262.5,442.5C 256.833,442.5 251.167,442.5 245.5,442.5C 245.823,436.31 245.49,430.31 244.5,424.5 Z"/></g>
<g><path style="opacity:1" fill="#0e202d" d="M 231.5,359.5 C 224.833,359.5 218.167,359.5 211.5,359.5C 211.5,366.167 211.5,372.833 211.5,379.5C 218.167,379.5 224.833,379.5 231.5,379.5C 232.328,373.013 232.828,366.346 233,359.5C 233.333,366.5 233.667,373.5 234,380.5C 234.5,380 235,379.5 235.5,379C 234.62,373.302 235.453,373.135 238,378.5C 240.148,374.386 241.482,374.719 242,379.5C 242.172,372.987 242.672,366.653 243.5,360.5C 243.177,367.022 243.51,373.355 244.5,379.5C 250.833,379.5 257.167,379.5 263.5,379.5C 263.5,373.167 263.5,366.833 263.5,360.5C 263.5,360.167 263.5,359.833 263.5,359.5C 264.117,359.611 264.617,359.944 265,360.5C 265.831,367.192 265.664,373.858 264.5,380.5C 257.525,381.133 250.525,381.8 243.5,382.5C 244.833,383.5 246.167,384.5 247.5,385.5C 246.675,386.386 245.675,386.719 244.5,386.5C 244.5,387.833 244.5,389.167 244.5,390.5C 250.842,390.334 257.175,390.5 263.5,391C 256.987,391.172 250.653,391.672 244.5,392.5C 243.672,398.653 243.172,404.987 243,411.5C 241.601,412.227 240.101,412.727 238.5,413C 239.816,414.978 239.316,416.478 237,417.5C 235.431,416.062 233.931,414.562 232.5,413C 233.712,411.893 233.379,411.393 231.5,411.5C 231.5,405.167 231.5,398.833 231.5,392.5C 224.833,392.5 218.167,392.5 211.5,392.5C 211.5,398.833 211.5,405.167 211.5,411.5C 217.979,412.491 224.646,412.824 231.5,412.5C 231.67,413.822 231.337,414.989 230.5,416C 225.279,416.542 225.279,417.376 230.5,418.5C 230.291,419.086 229.957,419.586 229.5,420C 226.833,420.333 224.167,420.667 221.5,421C 223.333,421.167 225.167,421.333 227,421.5C 229.302,421.4 231.302,420.733 233,419.5C 234.133,421.211 235.633,421.711 237.5,421C 237.833,420 238.167,419 238.5,418C 240.18,417.966 241.68,417.799 243,417.5C 243.311,416.258 242.811,415.258 241.5,414.5C 242.376,413.749 243.376,413.249 244.5,413C 269.618,412.385 269.618,413.219 244.5,415.5C 247.062,416.641 249.728,417.474 252.5,418C 249.639,418.762 246.639,419.262 243.5,419.5C 250.441,420.652 257.108,421.986 263.5,423.5C 263.167,423.5 262.833,423.5 262.5,423.5C 256.5,423.5 250.5,423.5 244.5,423.5C 243.672,429.987 243.172,436.654 243,443.5C 242.667,437.167 242.333,430.833 242,424.5C 241.64,426.608 240.973,428.608 240,430.5C 239.667,429.5 239.333,428.5 239,427.5C 236.867,426.745 235.2,425.412 234,423.5C 233.667,430.167 233.333,436.833 233,443.5C 232.617,444.056 232.117,444.389 231.5,444.5C 231.5,437.833 231.5,431.167 231.5,424.5C 224.833,423.167 218.167,423.167 211.5,424.5C 211.5,431.167 211.5,437.833 211.5,444.5C 209.914,443.852 208.247,443.352 206.5,443C 209.032,442.388 209.865,440.888 209,438.5C 208.444,440.595 207.944,440.762 207.5,439C 210.286,434.077 209.619,429.577 205.5,425.5C 203.958,426.747 202.458,426.747 201,425.5C 200.667,431.833 200.333,438.167 200,444.5C 199.828,437.654 199.328,430.987 198.5,424.5C 191.352,423.508 184.019,423.175 176.5,423.5C 176.5,430.5 176.5,437.5 176.5,444.5C 183.833,444.5 191.167,444.5 198.5,444.5C 192.347,445.328 186.013,445.828 179.5,446C 180.517,447.049 180.684,448.216 180,449.5C 178.887,447.671 177.387,446.837 175.5,447C 179.669,450.811 179.502,451.645 175,449.5C 173.869,450.604 173.035,450.271 172.5,448.5C 173.711,447.126 174.711,445.626 175.5,444C 174.811,437.841 174.145,431.675 173.5,425.5C 174.003,419.165 176.836,417.832 182,421.5C 186.667,420.167 191.333,420.167 196,421.5C 196.242,419.862 197.075,418.362 198.5,417C 197.5,416.667 196.5,416.333 195.5,416C 195.833,415.667 196.167,415.333 196.5,415C 189.726,414.922 183.059,414.255 176.5,413C 184.011,412.829 191.345,412.329 198.5,411.5C 199.328,405.347 199.828,399.013 200,392.5C 200.333,397.5 200.667,402.5 201,407.5C 201.853,405.875 202.853,405.542 204,406.5C 204.494,404.866 204.66,403.199 204.5,401.5C 205.873,401.343 207.207,401.51 208.5,402C 208.167,402.333 207.833,402.667 207.5,403C 208.834,405.66 209.668,408.494 210,411.5C 211.173,403.898 210.339,396.565 207.5,389.5C 209.375,388.031 209.375,386.198 207.5,384C 213.753,382.796 220.086,382.129 226.5,382C 219.833,381.667 213.167,381.333 206.5,381C 208.348,378.037 209.348,375.037 209.5,372C 206.801,369.973 204.801,367.973 203.5,366C 205.668,364.126 207.168,362.293 208,360.5C 210.033,363.097 209.533,365.263 206.5,367C 207,367.5 207.5,368 208,368.5C 210.105,365.893 210.938,362.893 210.5,359.5C 208.088,359.756 206.421,358.756 205.5,356.5C 204.304,356.846 204.304,357.346 205.5,358C 203.567,358.783 202.067,358.283 201,356.5C 200.667,364.167 200.333,371.833 200,379.5C 199.828,372.987 199.328,366.653 198.5,360.5C 191.352,359.508 184.019,359.175 176.5,359.5C 175.047,358.175 175.381,357.342 177.5,357C 184.492,356.5 191.492,356.334 198.5,356.5C 198.5,354.833 198.5,353.167 198.5,351.5C 201.229,352.871 203.895,353.705 206.5,354C 208.037,355.11 208.703,356.61 208.5,358.5C 216.352,358.175 224.018,358.508 231.5,359.5 Z"/></g>
<g><path style="opacity:1" fill="#6daddc" d="M 211.5,424.5 C 212.49,430.31 212.823,436.31 212.5,442.5C 218.5,442.5 224.5,442.5 230.5,442.5C 230.177,436.31 230.51,430.31 231.5,424.5C 231.5,431.167 231.5,437.833 231.5,444.5C 224.833,444.5 218.167,444.5 211.5,444.5C 211.5,437.833 211.5,431.167 211.5,424.5 Z"/></g>
<g><path style="opacity:1" fill="#4fa1eb" d="M 211.5,424.5 C 218.167,423.167 224.833,423.167 231.5,424.5C 230.51,430.31 230.177,436.31 230.5,442.5C 224.5,442.5 218.5,442.5 212.5,442.5C 212.823,436.31 212.49,430.31 211.5,424.5 Z"/></g>
<g><path style="opacity:1" fill="#5ca8e2" d="M 198.5,424.5 C 198.5,431.167 198.5,437.833 198.5,444.5C 191.167,444.5 183.833,444.5 176.5,444.5C 176.5,437.5 176.5,430.5 176.5,423.5C 184.019,423.175 191.352,423.508 198.5,424.5 Z"/></g>
<g><path style="opacity:1" fill="#4e9fea" d="M 178.5,425.5 C 184.833,425.5 191.167,425.5 197.5,425.5C 197.5,431.167 197.5,436.833 197.5,442.5C 191.167,442.5 184.833,442.5 178.5,442.5C 178.5,436.833 178.5,431.167 178.5,425.5 Z"/></g>
<g><path style="opacity:1" fill="#7dc1f2" d="M 244.5,392.5 C 250.833,392.5 257.167,392.5 263.5,392.5C 263.5,398.833 263.5,405.167 263.5,411.5C 257.167,411.5 250.833,411.5 244.5,411.5C 244.5,405.167 244.5,398.833 244.5,392.5 Z"/></g>
<g><path style="opacity:1" fill="#77cafd" d="M 176.5,393.5 C 183.648,392.508 190.981,392.175 198.5,392.5C 198.5,398.833 198.5,405.167 198.5,411.5C 190.981,411.825 183.648,411.492 176.5,410.5C 183.5,410.5 190.5,410.5 197.5,410.5C 197.5,404.833 197.5,399.167 197.5,393.5C 190.5,393.5 183.5,393.5 176.5,393.5 Z"/></g>
<g><path style="opacity:1" fill="#81cdfd" d="M 276.5,424.5 C 279.518,424.335 282.518,424.502 285.5,425C 282.854,425.497 280.187,425.664 277.5,425.5C 277.5,431.167 277.5,436.833 277.5,442.5C 283.833,442.5 290.167,442.5 296.5,442.5C 296.5,404.5 296.5,366.5 296.5,328.5C 290.167,328.5 283.833,328.5 277.5,328.5C 277.5,334.5 277.5,340.5 277.5,346.5C 280.713,346.19 283.713,346.523 286.5,347.5C 283.167,347.5 279.833,347.5 276.5,347.5C 276.5,340.833 276.5,334.167 276.5,327.5C 283.5,327.5 290.5,327.5 297.5,327.5C 297.5,366.167 297.5,404.833 297.5,443.5C 290.5,443.5 283.5,443.5 276.5,443.5C 276.5,437.167 276.5,430.833 276.5,424.5 Z"/></g>
<g><path style="opacity:1" fill="#7fc3f1" d="M 231.5,411.5 C 224.833,411.5 218.167,411.5 211.5,411.5C 211.5,405.167 211.5,398.833 211.5,392.5C 218.167,392.5 224.833,392.5 231.5,392.5C 231.5,398.833 231.5,405.167 231.5,411.5 Z"/></g>
<g><path style="opacity:1" fill="#4da0eb" d="M 245.5,393.5 C 251.167,393.5 256.833,393.5 262.5,393.5C 262.5,399.167 262.5,404.833 262.5,410.5C 256.833,410.5 251.167,410.5 245.5,410.5C 245.5,404.833 245.5,399.167 245.5,393.5 Z"/></g>
<g><path style="opacity:1" fill="#4da0ea" d="M 212.5,393.5 C 218.5,393.5 224.5,393.5 230.5,393.5C 230.5,399.167 230.5,404.833 230.5,410.5C 224.5,410.5 218.5,410.5 212.5,410.5C 212.5,404.833 212.5,399.167 212.5,393.5 Z"/></g>
<g><path style="opacity:1" fill="#4fa0ea" d="M 176.5,393.5 C 183.5,393.5 190.5,393.5 197.5,393.5C 197.5,399.167 197.5,404.833 197.5,410.5C 190.5,410.5 183.5,410.5 176.5,410.5C 176.5,404.833 176.5,399.167 176.5,393.5 Z"/></g>
<g><path style="opacity:1" fill="#2d597c" d="M 263.5,359.5 C 263.5,359.833 263.5,360.167 263.5,360.5C 257.167,360.5 250.833,360.5 244.5,360.5C 244.5,366.833 244.5,373.167 244.5,379.5C 243.51,373.355 243.177,367.022 243.5,360.5C 249.979,359.509 256.646,359.176 263.5,359.5 Z"/></g>
<g><path style="opacity:1" fill="#72b3e2" d="M 231.5,359.5 C 231.5,366.167 231.5,372.833 231.5,379.5C 224.833,379.5 218.167,379.5 211.5,379.5C 211.5,372.833 211.5,366.167 211.5,359.5C 218.167,359.5 224.833,359.5 231.5,359.5 Z"/></g>
<g><path style="opacity:1" fill="#4fa0ea" d="M 176.5,361.5 C 183.5,361.5 190.5,361.5 197.5,361.5C 197.5,367.167 197.5,372.833 197.5,378.5C 190.5,378.5 183.5,378.5 176.5,378.5C 176.5,372.833 176.5,367.167 176.5,361.5 Z"/></g>
<g><path style="opacity:1" fill="#7cc2f2" d="M 263.5,360.5 C 263.5,366.833 263.5,373.167 263.5,379.5C 257.167,379.5 250.833,379.5 244.5,379.5C 244.5,373.167 244.5,366.833 244.5,360.5C 250.833,360.5 257.167,360.5 263.5,360.5 Z"/></g>
<g><path style="opacity:1" fill="#4da0eb" d="M 245.5,361.5 C 251.167,361.5 256.833,361.5 262.5,361.5C 262.5,367.167 262.5,372.833 262.5,378.5C 256.833,378.5 251.167,378.5 245.5,378.5C 245.5,372.833 245.5,367.167 245.5,361.5 Z"/></g>
<g><path style="opacity:1" fill="#4ea1eb" d="M 212.5,361.5 C 218.5,361.5 224.5,361.5 230.5,361.5C 230.5,367.167 230.5,372.833 230.5,378.5C 224.5,378.5 218.5,378.5 212.5,378.5C 212.5,372.833 212.5,367.167 212.5,361.5 Z"/></g>
<g><path style="opacity:1" fill="#65b6ea" d="M 176.5,359.5 C 184.019,359.175 191.352,359.508 198.5,360.5C 198.5,366.833 198.5,373.167 198.5,379.5C 190.981,379.825 183.648,379.492 176.5,378.5C 183.5,378.5 190.5,378.5 197.5,378.5C 197.5,372.833 197.5,367.167 197.5,361.5C 190.5,361.5 183.5,361.5 176.5,361.5C 176.5,360.833 176.5,360.167 176.5,359.5 Z"/></g>
<g><path style="opacity:1" fill="#50a2ea" d="M 276.5,424.5 C 279.977,423.677 283.644,423.177 287.5,423C 291.704,418.845 291.371,415.178 286.5,412C 283.183,411.502 279.85,411.335 276.5,411.5C 276.5,405.167 276.5,398.833 276.5,392.5C 281.765,393.429 286.265,392.096 290,388.5C 291.176,384.74 290.01,381.907 286.5,380C 283.183,379.502 279.85,379.335 276.5,379.5C 276.5,372.833 276.5,366.167 276.5,359.5C 280.182,359.665 283.848,359.499 287.5,359C 290.207,357.136 291.041,354.636 290,351.5C 288.624,350.295 287.458,348.962 286.5,347.5C 283.713,346.523 280.713,346.19 277.5,346.5C 277.5,340.5 277.5,334.5 277.5,328.5C 283.833,328.5 290.167,328.5 296.5,328.5C 296.5,366.5 296.5,404.5 296.5,442.5C 290.167,442.5 283.833,442.5 277.5,442.5C 277.5,436.833 277.5,431.167 277.5,425.5C 280.187,425.664 282.854,425.497 285.5,425C 282.518,424.502 279.518,424.335 276.5,424.5 Z"/></g>
<g><path style="opacity:1" fill="#72c0f5" d="M 198.5,327.5 C 198.5,334.167 198.5,340.833 198.5,347.5C 191.167,347.5 183.833,347.5 176.5,347.5C 176.5,340.833 176.5,334.167 176.5,327.5C 183.833,327.5 191.167,327.5 198.5,327.5 Z"/></g>
<g><path style="opacity:1" fill="#7fc1f1" d="M 244.5,327.5 C 250.833,327.5 257.167,327.5 263.5,327.5C 263.5,334.167 263.5,340.833 263.5,347.5C 257.167,347.5 250.833,347.5 244.5,347.5C 244.5,340.833 244.5,334.167 244.5,327.5 Z"/></g>
<g><path style="opacity:1" fill="#4da1eb" d="M 245.5,328.5 C 251.167,328.5 256.833,328.5 262.5,328.5C 262.5,334.5 262.5,340.5 262.5,346.5C 256.833,346.5 251.167,346.5 245.5,346.5C 245.5,340.5 245.5,334.5 245.5,328.5 Z"/></g>
<g><path style="opacity:1" fill="#4ea1eb" d="M 177.5,328.5 C 184.167,328.5 190.833,328.5 197.5,328.5C 197.5,334.5 197.5,340.5 197.5,346.5C 190.833,346.5 184.167,346.5 177.5,346.5C 177.5,340.5 177.5,334.5 177.5,328.5 Z"/></g>
<g><path style="opacity:1" fill="#80c1ee" d="M 230.5,327.5 C 231.491,333.979 231.824,340.646 231.5,347.5C 224.833,347.5 218.167,347.5 211.5,347.5C 211.5,340.833 211.5,334.167 211.5,327.5C 217.833,327.5 224.167,327.5 230.5,327.5 Z"/></g>
<g><path style="opacity:1" fill="#4da1ec" d="M 212.5,328.5 C 218.5,328.5 224.5,328.5 230.5,328.5C 230.5,334.5 230.5,340.5 230.5,346.5C 224.5,346.5 218.5,346.5 212.5,346.5C 212.5,340.5 212.5,334.5 212.5,328.5 Z"/></g>
<g><path style="opacity:1" fill="#0d1924" d="M 244.5,444.5 C 250.833,444.5 257.167,444.5 263.5,444.5C 258.015,445.327 252.348,445.827 246.5,446C 251.833,446.333 257.167,446.667 262.5,447C 258.735,448.872 258.735,449.705 262.5,449.5C 261.35,452.32 260.184,452.654 259,450.5C 258.51,451.793 258.343,453.127 258.5,454.5C 260.39,454.297 261.89,454.963 263,456.5C 277.931,455.17 292.765,455.17 307.5,456.5C 293.215,457.466 278.882,457.8 264.5,457.5C 263.667,492.998 263.167,528.664 263,564.5C 262.667,528.833 262.333,493.167 262,457.5C 261.667,459.5 261.333,461.5 261,463.5C 260.5,463 260,462.5 259.5,462C 260.299,457.504 259.466,457.337 257,461.5C 254.851,459.276 255.351,457.776 258.5,457C 257.975,456.308 257.308,455.808 256.5,455.5C 255.742,456.811 254.742,457.311 253.5,457C 254.104,454.532 255.438,452.532 257.5,451C 256.185,449.605 256.519,448.605 258.5,448C 254.199,446.734 251.366,448.234 250,452.5C 247.708,450.118 245.875,447.451 244.5,444.5 Z"/></g>
<g><path style="opacity:1" fill="#3c6589" d="M 452.5,450.5 C 453.043,450.56 453.376,450.893 453.5,451.5C 448.88,452.493 444.214,452.827 439.5,452.5C 443.833,451.833 448.167,451.167 452.5,450.5 Z"/></g>
<g><path style="opacity:1" fill="#54a4ea" d="M 799.5,447.5 C 806.314,447.49 808.814,450.823 807,457.5C 802.927,461.619 799.26,461.285 796,456.5C 794.98,452.553 796.147,449.553 799.5,447.5 Z"/></g>
<g><path style="opacity:1" fill="#6db6ee" d="M 435.5,427.5 C 441.521,434.861 447.187,442.528 452.5,450.5C 448.167,451.167 443.833,451.833 439.5,452.5C 435.12,453.293 430.786,454.293 426.5,455.5C 430.703,453.598 434.87,451.598 439,449.5C 442.744,450.626 446.577,450.793 450.5,450C 444.86,442.872 439.86,435.372 435.5,427.5 Z"/></g>
<g><path style="opacity:1" fill="#50a0e9" d="M 483.5,487.5 C 483.67,488.822 483.337,489.989 482.5,491C 485.383,492.589 486.883,495.089 487,498.5C 487.5,505.158 487.666,511.825 487.5,518.5C 460.661,518.169 433.995,518.502 407.5,519.5C 407.167,519.5 406.833,519.5 406.5,519.5C 406.334,512.825 406.5,506.158 407,499.5C 412.572,478.251 426.239,466.918 448,465.5C 464.322,465.897 476.155,473.23 483.5,487.5 Z"/></g>
<g><path style="opacity:1" fill="#01030b" d="M 164.5,454.5 C 165.756,454.461 166.756,454.961 167.5,456C 195.851,455.84 223.851,456.673 251.5,458.5C 251.832,494.004 251.498,529.337 250.5,564.5C 250.5,528.833 250.5,493.167 250.5,457.5C 222.498,457.667 194.498,457.5 166.5,457C 165.619,456.292 164.953,455.458 164.5,454.5 Z"/></g>
<g><path style="opacity:1" fill="#021225" d="M 251.5,458.5 C 252.175,496.527 252.842,534.694 253.5,573C 253.43,573.765 253.097,574.265 252.5,574.5C 251.706,571.198 251.04,567.865 250.5,564.5C 251.498,529.337 251.832,494.004 251.5,458.5 Z"/></g>
<g><path style="opacity:1" fill="#0f2330" d="M 643.5,556.5 C 635.119,540.462 634.453,524.129 641.5,507.5C 659.82,477.831 684.82,470.664 716.5,486C 738.795,501.549 745.961,522.382 738,548.5C 724.789,576.52 702.956,587.02 672.5,580C 660.275,575.271 650.609,567.437 643.5,556.5 Z"/></g>
<g><path style="opacity:1" fill="#0f222e" d="M 325.5,492.5 C 337.192,490.762 340.859,495.262 336.5,506C 326.3,510.34 321.467,507.174 322,496.5C 323.032,494.973 324.199,493.64 325.5,492.5 Z"/></g>
<g><path style="opacity:1" fill="#102330" d="M 293.5,491.5 C 302.658,489.835 306.825,493.501 306,502.5C 305.215,504.286 304.049,505.786 302.5,507C 293.4,509.866 288.9,506.7 289,497.5C 290.332,495.34 291.832,493.34 293.5,491.5 Z"/></g>
<g><path style="opacity:1" fill="#102433" d="M 559.5,499.5 C 576.837,499.333 594.17,499.5 611.5,500C 615.629,502.631 616.462,506.131 614,510.5C 612.581,511.46 611.081,512.293 609.5,513C 593.5,513.667 577.5,513.667 561.5,513C 555.591,509.376 554.925,504.876 559.5,499.5 Z"/></g>
<g><path style="opacity:1" fill="#73bef9" d="M 270.5,578.5 C 267.643,575.454 265.81,571.787 265,567.5C 264.5,530.835 264.333,494.168 264.5,457.5C 278.882,457.8 293.215,457.466 307.5,456.5C 309.167,455.5 310.5,454.167 311.5,452.5C 311.5,452.167 311.5,451.833 311.5,451.5C 312.333,407.002 312.833,362.335 313,317.5C 313.667,362.5 313.667,407.5 313,452.5C 311.74,455.428 309.573,457.261 306.5,458C 292.837,458.5 279.171,458.667 265.5,458.5C 265.333,493.502 265.5,528.502 266,563.5C 266.6,568.797 268.1,573.797 270.5,578.5 Z"/></g>
<g><path style="opacity:1" fill="#6bb4ed" d="M 641.5,507.5 C 634.453,524.129 635.119,540.462 643.5,556.5C 637.389,548.836 634.723,540.003 635.5,530C 635.477,525.432 635.977,520.932 637,516.5C 637.759,512.431 639.259,509.431 641.5,507.5 Z"/></g>
<g><path style="opacity:1" fill="#000108" d="M 771.5,565.5 C 771.326,567.861 770.993,570.194 770.5,572.5C 769.876,572.083 769.543,571.416 769.5,570.5C 770.323,525.856 770.823,481.189 771,436.5C 771.5,479.499 771.667,522.499 771.5,565.5 Z"/></g>
<g><path style="opacity:1" fill="#6fb6f1" d="M 483.5,487.5 C 484.315,488.429 485.148,489.429 486,490.5C 489.473,500.078 490.307,509.745 488.5,519.5C 461.5,519.5 434.5,519.5 407.5,519.5C 433.995,518.502 460.661,518.169 487.5,518.5C 487.666,511.825 487.5,505.158 487,498.5C 486.883,495.089 485.383,492.589 482.5,491C 483.337,489.989 483.67,488.822 483.5,487.5 Z"/></g>
<g><path style="opacity:1" fill="#0c273b" d="M 392.5,498.5 C 393.329,505.321 393.829,512.321 394,519.5C 394.333,513.5 394.667,507.5 395,501.5C 395.197,506.086 395.697,510.586 396.5,515C 396.643,517.041 396.309,519.208 395.5,521.5C 395.808,522.308 396.308,522.975 397,523.5C 398.691,520.869 399.858,521.203 400.5,524.5C 401.524,523.147 402.857,522.48 404.5,522.5C 404.579,521.07 404.246,519.736 403.5,518.5C 403.833,518.167 404.167,517.833 404.5,517.5C 405.182,518.243 405.849,518.909 406.5,519.5C 406.833,519.5 407.167,519.5 407.5,519.5C 434.5,519.5 461.5,519.5 488.5,519.5C 461.664,520.167 434.664,520.833 407.5,521.5C 418.485,522.332 429.485,522.832 440.5,523C 440.833,523.333 441.167,523.667 441.5,524C 440.376,524.249 439.376,524.749 438.5,525.5C 443.802,526.329 449.136,526.829 454.5,527C 444.5,527.667 434.5,527.667 424.5,527C 428.871,526.828 433.204,526.328 437.5,525.5C 427.5,524.167 417.5,524.167 407.5,525.5C 411.459,526.327 415.459,526.827 419.5,527C 412.167,527.333 404.833,527.667 397.5,528C 405.5,528.667 413.5,528.667 421.5,528C 421.167,527.667 420.833,527.333 420.5,527C 423.124,524.641 423.791,524.975 422.5,528C 452.348,528.401 482.015,528.901 511.5,529.5C 469.833,530.833 428.167,530.833 386.5,529.5C 389.785,528.676 393.118,528.176 396.5,528C 392.251,527.003 388.251,527.503 384.5,529.5C 383.289,528.726 383.289,527.893 384.5,527C 395.147,525.842 395.147,525.009 384.5,524.5C 384.5,523.5 384.5,522.5 384.5,521.5C 395.167,521.167 395.167,520.833 384.5,520.5C 386.948,519.527 389.615,519.194 392.5,519.5C 392.5,512.5 392.5,505.5 392.5,498.5 Z"/></g>
<g><path style="opacity:1" fill="#0f2330" d="M 610.5,540.5 C 594.163,540.667 577.83,540.5 561.5,540C 557.191,537.427 556.524,534.094 559.5,530C 559.272,529.601 558.938,529.435 558.5,529.5C 558.918,528.778 559.584,528.278 560.5,528C 577.167,527.333 593.833,527.333 610.5,528C 614.351,530.415 615.518,533.915 614,538.5C 613.184,539.823 612.017,540.489 610.5,540.5 Z"/></g>
<g><path style="opacity:1" fill="#000e23" d="M 512.5,534.5 C 472.209,533.512 431.876,533.178 391.5,533.5C 390.167,533.5 388.833,533.5 387.5,533.5C 427.458,532.339 468.792,532.172 511.5,533C 512.167,533.333 512.833,533.667 513.5,534C 513.272,534.399 512.938,534.565 512.5,534.5 Z"/></g>
<g><path style="opacity:1" fill="#79c5fb" d="M 391.5,533.5 C 431.876,533.178 472.209,533.512 512.5,534.5C 512.5,534.833 512.5,535.167 512.5,535.5C 472.02,534.856 431.687,534.189 391.5,533.5 Z"/></g>
<g><path style="opacity:1" fill="#52a1e9" d="M 682.5,491.5 C 704.605,490.119 719.438,499.786 727,520.5C 730.214,546.271 719.381,562.438 694.5,569C 669.887,570.111 655.054,558.611 650,534.5C 649.647,511.689 660.48,497.356 682.5,491.5 Z"/></g>
<g><path style="opacity:1" fill="#10222f" d="M 326.5,525.5 C 338.7,525.51 341.7,530.677 335.5,541C 325.899,543.715 321.399,540.215 322,530.5C 323.193,528.503 324.693,526.836 326.5,525.5 Z"/></g>
<g><path style="opacity:1" fill="#10212d" d="M 293.5,525.5 C 302.825,524.327 306.992,528.327 306,537.5C 305.535,538.931 304.701,540.097 303.5,541C 293.412,544.212 288.579,540.712 289,530.5C 290.707,528.963 292.207,527.296 293.5,525.5 Z"/></g>
<g><path style="opacity:1" fill="#4fa0e9" d="M 387.5,533.5 C 388.833,533.5 390.167,533.5 391.5,533.5C 431.687,534.189 472.02,534.856 512.5,535.5C 516.741,538.295 519.241,542.295 520,547.5C 520.5,555.159 520.666,562.826 520.5,570.5C 472.167,570.5 423.833,570.5 375.5,570.5C 375.825,562.981 375.492,555.648 374.5,548.5C 375.672,540.667 380.006,535.667 387.5,533.5 Z"/></g>
<g><path style="opacity:1" fill="#0e2331" d="M 683.5,510.5 C 702.164,509.33 710.331,517.997 708,536.5C 702.543,548.643 693.376,552.81 680.5,549C 669.357,542.239 666.191,532.739 671,520.5C 674.191,515.837 678.358,512.503 683.5,510.5 Z"/></g>
<g><path style="opacity:1" fill="#59a8ec" d="M 686.5,524.5 C 692.82,524.32 695.32,527.32 694,533.5C 690.582,537.367 687.249,537.367 684,533.5C 682.927,529.9 683.76,526.9 686.5,524.5 Z"/></g>
<g><path style="opacity:1" fill="#010612" d="M 558.5,529.5 C 558.938,529.435 559.272,529.601 559.5,530C 556.524,534.094 557.191,537.427 561.5,540C 577.83,540.5 594.163,540.667 610.5,540.5C 594.005,541.662 577.338,541.828 560.5,541C 556.708,538.947 555.542,535.781 557,531.5C 557.278,530.584 557.778,529.918 558.5,529.5 Z"/></g>
<g><path style="opacity:1" fill="#0e2331" d="M 611.5,569.5 C 595.719,569.61 579.719,569.443 563.5,569C 558.531,565.66 558.197,561.827 562.5,557.5C 578.328,556.339 594.328,556.172 610.5,557C 615.407,560.908 615.741,565.074 611.5,569.5 Z"/></g>
<g><path style="opacity:1" fill="#030f26" d="M 562.5,557.5 C 558.197,561.827 558.531,565.66 563.5,569C 579.719,569.443 595.719,569.61 611.5,569.5C 594.907,570.651 578.241,570.818 561.5,570C 555.835,565.055 556.169,560.889 562.5,557.5 Z"/></g>
<g><path style="opacity:1" fill="#70b6ef" d="M 512.5,535.5 C 517.405,536.927 520.238,540.261 521,545.5C 521.5,553.493 521.666,561.493 521.5,569.5C 472.845,571.495 423.845,572.162 374.5,571.5C 374.5,563.833 374.5,556.167 374.5,548.5C 375.492,555.648 375.825,562.981 375.5,570.5C 423.833,570.5 472.167,570.5 520.5,570.5C 520.666,562.826 520.5,555.159 520,547.5C 519.241,542.295 516.741,538.295 512.5,535.5 Z"/></g>
<g><path style="opacity:1" fill="#001934" d="M 521.5,569.5 C 522.404,570.209 522.737,571.209 522.5,572.5C 472.997,572.832 423.664,572.499 374.5,571.5C 423.845,572.162 472.845,571.495 521.5,569.5 Z"/></g>
<g><path style="opacity:1" fill="#4ea0eb" d="M 356.5,586.5 C 417.167,586.5 477.833,586.5 538.5,586.5C 538.5,588.167 538.5,589.833 538.5,591.5C 477.833,591.5 417.167,591.5 356.5,591.5C 356.5,589.833 356.5,588.167 356.5,586.5 Z"/></g>
<g><path style="opacity:1" fill="#80cbf9" d="M 343.5,577.5 C 343.5,582.5 343.5,587.5 343.5,592.5C 326.167,592.5 308.833,592.5 291.5,592.5C 308.325,591.503 325.325,591.17 342.5,591.5C 342.181,586.637 342.514,581.97 343.5,577.5 Z"/></g>
<g><path style="opacity:1" fill="#7fcdfe" d="M 356.5,586.5 C 417.331,585.501 478.331,585.168 539.5,585.5C 539.5,587.833 539.5,590.167 539.5,592.5C 478.331,592.832 417.331,592.499 356.5,591.5C 417.167,591.5 477.833,591.5 538.5,591.5C 538.5,589.833 538.5,588.167 538.5,586.5C 477.833,586.5 417.167,586.5 356.5,586.5 Z"/></g>
<g><path style="opacity:1" fill="#7dcdfd" d="M 553.5,578.5 C 554.485,582.634 554.818,586.968 554.5,591.5C 613.501,591.667 672.501,591.5 731.5,591C 736.033,589.989 740.367,588.489 744.5,586.5C 741.454,589.357 737.787,591.19 733.5,592C 673.501,592.5 613.501,592.667 553.5,592.5C 553.5,587.833 553.5,583.167 553.5,578.5 Z"/></g>
<g><path style="opacity:1" fill="#000002" d="M 286.5,605.5 C 288.607,604.532 290.941,604.198 293.5,604.5C 438.833,605.167 584.167,605.833 729.5,606.5C 581.793,606.83 434.126,606.497 286.5,605.5 Z"/></g>
<g><path style="opacity:1" fill="#0f212d" d="M 711.5,663.5 C 725.158,662.66 731.658,668.993 731,682.5C 726.557,693.322 718.724,696.822 707.5,693C 699.127,687.199 697.293,679.699 702,670.5C 704.825,667.524 707.992,665.191 711.5,663.5 Z"/></g>
<g><path style="opacity:1" fill="#0f222e" d="M 519.5,809.5 C 519.665,805.818 519.499,802.152 519,798.5C 501.116,815.509 481.283,818.009 459.5,806C 444.839,794.505 437.839,779.338 438.5,760.5C 438.363,727.312 454.696,708.978 487.5,705.5C 500.046,705.692 510.546,710.359 519,719.5C 519.399,719.272 519.565,718.938 519.5,718.5C 520.222,718.918 520.722,719.584 521,720.5C 521.5,703.503 521.667,686.503 521.5,669.5C 529.5,669.5 537.5,669.5 545.5,669.5C 545.5,716.167 545.5,762.833 545.5,809.5C 537.5,809.5 529.5,809.5 521.5,809.5C 521.666,805.486 521.499,801.486 521,797.5C 520.824,801.688 520.324,805.688 519.5,809.5 Z"/></g>
<g><path style="opacity:1" fill="#0d1013" d="M 596.5,669.5 C 595.668,691.33 595.168,713.33 595,735.5C 594.5,713.503 594.333,691.503 594.5,669.5C 586.5,669.5 578.5,669.5 570.5,669.5C 570.5,716.167 570.5,762.833 570.5,809.5C 578.833,809.5 587.167,809.5 595.5,809.5C 595.333,794.163 595.5,778.83 596,763.5C 601.031,757.932 606.197,753.265 611.5,749.5C 607.203,754.298 602.703,758.965 598,763.5C 597.5,779.163 597.333,794.83 597.5,810.5C 588.167,810.5 578.833,810.5 569.5,810.5C 569.5,763.167 569.5,715.833 569.5,668.5C 578.682,668.173 587.682,668.507 596.5,669.5 Z"/></g>
<g><path style="opacity:1" fill="#0f232f" d="M 611.5,749.5 C 606.197,753.265 601.031,757.932 596,763.5C 595.5,778.83 595.333,794.163 595.5,809.5C 587.167,809.5 578.833,809.5 570.5,809.5C 570.5,762.833 570.5,716.167 570.5,669.5C 578.5,669.5 586.5,669.5 594.5,669.5C 594.333,691.503 594.5,713.503 595,735.5C 595.168,713.33 595.668,691.33 596.5,669.5C 596.333,691.169 596.5,712.836 597,734.5C 615.5,712.667 634,690.833 652.5,669C 663.167,668.333 673.833,668.333 684.5,669C 667.737,689.186 650.737,709.186 633.5,729C 651.833,756 670.167,783 688.5,810C 677.5,810.667 666.5,810.667 655.5,810C 641.376,789.587 627.376,769.087 613.5,748.5C 612.817,748.863 612.15,749.196 611.5,749.5 Z"/></g>
<g><path style="opacity:1" fill="#0f222e" d="M 128.5,790.5 C 129.043,790.44 129.376,790.107 129.5,789.5C 126.109,783.604 124.109,777.27 123.5,770.5C 131.854,770.573 140.188,770.24 148.5,769.5C 149.022,772.568 149.855,775.568 151,778.5C 152.047,780.708 153.547,782.374 155.5,783.5C 169.29,791.89 183.624,792.723 198.5,786C 204.212,780.331 206.045,773.497 204,765.5C 202.558,761.725 200.058,758.892 196.5,757C 180.828,752.666 165.162,748.333 149.5,744C 130.196,735.226 122.696,720.393 127,699.5C 132.816,683.023 144.316,672.856 161.5,669C 180.963,664.894 198.963,668.227 215.5,679C 224.055,686.609 229.055,696.109 230.5,707.5C 221.584,709.225 212.584,710.225 203.5,710.5C 200.199,696.333 191.199,689.666 176.5,690.5C 157.56,690.584 150.727,699.584 156,717.5C 157.938,720.106 160.438,721.939 163.5,723C 179.211,727.178 194.878,731.511 210.5,736C 230.496,746.962 236.996,763.462 230,785.5C 223.711,799.115 213.211,807.615 198.5,811C 178.53,816.135 159.53,813.801 141.5,804C 136.29,800.291 131.957,795.791 128.5,790.5 Z"/></g>
<g><path style="opacity:1" fill="#000308" d="M 280.5,682.5 C 280.5,691.167 280.5,699.833 280.5,708.5C 279.507,700.35 279.174,692.017 279.5,683.5C 271.5,683.5 263.5,683.5 255.5,683.5C 255.826,692.017 255.493,700.35 254.5,708.5C 254.5,699.833 254.5,691.167 254.5,682.5C 263.167,682.5 271.833,682.5 280.5,682.5 Z"/></g>
<g><path style="opacity:1" fill="#0e1319" d="M 783.5,708.5 C 782.507,700.35 782.174,692.017 782.5,683.5C 774.5,683.5 766.5,683.5 758.5,683.5C 758.5,692.167 758.5,700.833 758.5,709.5C 753.5,709.5 748.5,709.5 743.5,709.5C 743.5,715.5 743.5,721.5 743.5,727.5C 748.833,727.5 754.167,727.5 759.5,727.5C 759.762,746.358 759.096,765.024 757.5,783.5C 757.5,765.167 757.5,746.833 757.5,728.5C 752.167,728.5 746.833,728.5 741.5,728.5C 741.5,721.833 741.5,715.167 741.5,708.5C 746.833,708.5 752.167,708.5 757.5,708.5C 757.5,699.5 757.5,690.5 757.5,681.5C 766.167,681.5 774.833,681.5 783.5,681.5C 783.5,690.5 783.5,699.5 783.5,708.5 Z"/></g>
<g><path style="opacity:1" fill="#0f2430" d="M 280.5,708.5 C 288.65,709.493 296.983,709.826 305.5,709.5C 305.5,715.5 305.5,721.5 305.5,727.5C 296.833,727.5 288.167,727.5 279.5,727.5C 279.17,746.341 279.503,765.007 280.5,783.5C 281.82,785.463 283.154,787.463 284.5,789.5C 284.611,790.117 284.944,790.617 285.5,791C 292.117,792.706 298.784,792.873 305.5,791.5C 305.5,797.5 305.5,803.5 305.5,809.5C 297.705,810.56 290.038,811.56 282.5,812.5C 273.701,811.961 266.201,808.628 260,802.5C 258.878,800.593 258.045,798.593 257.5,796.5C 257.162,794.146 256.662,791.813 256,789.5C 255.832,768.996 255.332,748.663 254.5,728.5C 250.03,727.514 245.363,727.181 240.5,727.5C 240.5,721.5 240.5,715.5 240.5,709.5C 245.363,709.819 250.03,709.486 254.5,708.5C 255.493,700.35 255.826,692.017 255.5,683.5C 263.5,683.5 271.5,683.5 279.5,683.5C 279.174,692.017 279.507,700.35 280.5,708.5 Z"/></g>
<g><path style="opacity:1" fill="#0f2430" d="M 783.5,708.5 C 791.65,709.493 799.983,709.826 808.5,709.5C 808.5,715.5 808.5,721.5 808.5,727.5C 799.833,727.5 791.167,727.5 782.5,727.5C 782.168,746.244 782.501,764.244 783.5,781.5C 784.522,785.357 786.855,788.19 790.5,790C 797.218,790.795 803.884,790.628 810.5,789.5C 811.833,796.5 811.833,803.5 810.5,810.5C 801.27,812.44 791.936,812.94 782.5,812C 766.519,809.187 758.186,799.687 757.5,783.5C 759.096,765.024 759.762,746.358 759.5,727.5C 754.167,727.5 748.833,727.5 743.5,727.5C 743.5,721.5 743.5,715.5 743.5,709.5C 748.5,709.5 753.5,709.5 758.5,709.5C 758.5,700.833 758.5,692.167 758.5,683.5C 766.5,683.5 774.5,683.5 782.5,683.5C 782.174,692.017 782.507,700.35 783.5,708.5 Z"/></g>
<g><path style="opacity:1" fill="#5d6970" d="M 280.5,682.5 C 271.833,682.5 263.167,682.5 254.5,682.5C 254.5,691.167 254.5,699.833 254.5,708.5C 249.5,708.5 244.5,708.5 239.5,708.5C 243.97,707.514 248.637,707.181 253.5,707.5C 253.5,698.833 253.5,690.167 253.5,681.5C 262.682,681.173 271.682,681.507 280.5,682.5 Z"/></g>
<g><path style="opacity:1" fill="#000002" d="M 239.5,708.5 C 244.5,708.5 249.5,708.5 254.5,708.5C 250.03,709.486 245.363,709.819 240.5,709.5C 240.5,715.5 240.5,721.5 240.5,727.5C 245.363,727.181 250.03,727.514 254.5,728.5C 254.167,728.5 253.833,728.5 253.5,728.5C 248.833,728.5 244.167,728.5 239.5,728.5C 239.5,721.833 239.5,715.167 239.5,708.5 Z"/></g>
<g><path style="opacity:1" fill="#000103" d="M 280.5,708.5 C 289.167,708.5 297.833,708.5 306.5,708.5C 306.5,715.167 306.5,721.833 306.5,728.5C 297.833,728.5 289.167,728.5 280.5,728.5C 280.5,746.833 280.5,765.167 280.5,783.5C 279.503,765.007 279.17,746.341 279.5,727.5C 288.167,727.5 296.833,727.5 305.5,727.5C 305.5,721.5 305.5,715.5 305.5,709.5C 296.983,709.826 288.65,709.493 280.5,708.5 Z"/></g>
<g><path style="opacity:1" fill="#0f2430" d="M 373.5,791.5 C 379.664,789.996 385.33,787.329 390.5,783.5C 393.537,780.94 395.371,777.607 396,773.5C 396.5,752.169 396.667,730.836 396.5,709.5C 404.5,709.5 412.5,709.5 420.5,709.5C 420.5,742.833 420.5,776.167 420.5,809.5C 412.5,809.5 404.5,809.5 396.5,809.5C 396.81,806.287 396.477,803.287 395.5,800.5C 395.565,800.062 395.399,799.728 395,799.5C 377.046,815.497 357.546,817.663 336.5,806C 329.474,800.447 325.141,793.28 323.5,784.5C 324.498,759.672 324.831,734.672 324.5,709.5C 332.5,709.5 340.5,709.5 348.5,709.5C 348.039,733.885 348.539,758.219 350,782.5C 353.33,790.085 359.163,793.418 367.5,792.5C 370.293,792.572 372.293,792.239 373.5,791.5 Z"/></g>
<g><path style="opacity:1" fill="#161819" d="M 395.5,800.5 C 396.477,803.287 396.81,806.287 396.5,809.5C 404.5,809.5 412.5,809.5 420.5,809.5C 420.5,776.167 420.5,742.833 420.5,709.5C 412.5,709.5 404.5,709.5 396.5,709.5C 396.667,730.836 396.5,752.169 396,773.5C 395.371,777.607 393.537,780.94 390.5,783.5C 392.196,780.764 393.362,777.764 394,774.5C 394.5,752.503 394.667,730.503 394.5,708.5C 403.5,708.5 412.5,708.5 421.5,708.5C 421.5,742.5 421.5,776.5 421.5,810.5C 412.833,810.5 404.167,810.5 395.5,810.5C 395.5,807.167 395.5,803.833 395.5,800.5 Z"/></g>
<g><path style="opacity:1" fill="#000103" d="M 783.5,708.5 C 792.167,708.5 800.833,708.5 809.5,708.5C 809.5,715.167 809.5,721.833 809.5,728.5C 800.833,728.5 792.167,728.5 783.5,728.5C 783.5,746.167 783.5,763.833 783.5,781.5C 782.501,764.244 782.168,746.244 782.5,727.5C 791.167,727.5 799.833,727.5 808.5,727.5C 808.5,721.5 808.5,715.5 808.5,709.5C 799.983,709.826 791.65,709.493 783.5,708.5 Z"/></g>
<g><path style="opacity:1" fill="#13171a" d="M 895.5,715.5 C 882.501,707.972 868.501,705.472 853.5,708C 849.093,709.018 844.759,710.185 840.5,711.5C 858.26,703.205 875.927,703.705 893.5,713C 894.381,713.708 895.047,714.542 895.5,715.5 Z"/></g>
<g><path style="opacity:1" fill="#010305" d="M 322.5,708.5 C 331.5,708.5 340.5,708.5 349.5,708.5C 349.169,731.006 349.503,753.34 350.5,775.5C 350.12,783.584 353.787,788.751 361.5,791C 365.486,791.499 369.486,791.666 373.5,791.5C 372.293,792.239 370.293,792.572 367.5,792.5C 359.163,793.418 353.33,790.085 350,782.5C 348.539,758.219 348.039,733.885 348.5,709.5C 340.5,709.5 332.5,709.5 324.5,709.5C 324.831,734.672 324.498,759.672 323.5,784.5C 323.823,759.092 323.49,733.759 322.5,708.5 Z"/></g>
<g><path style="opacity:1" fill="#0f222e" d="M 895.5,715.5 C 900.817,719.44 904.15,724.774 905.5,731.5C 905.291,732.994 904.624,734.161 903.5,735C 897.17,735.819 890.836,736.152 884.5,736C 880.501,727.318 873.667,723.484 864,724.5C 857.33,723.94 851.997,726.273 848,731.5C 846.038,738.075 848.205,742.575 854.5,745C 867.531,748.206 880.531,751.54 893.5,755C 903.702,759.886 909.036,768.053 909.5,779.5C 908.334,794.665 900.667,804.998 886.5,810.5C 886.631,809.761 886.464,809.094 886,808.5C 883.34,809.834 880.506,810.668 877.5,811C 861.754,813.745 847.088,811.078 833.5,803C 827.076,797.978 823.409,791.478 822.5,783.5C 829.476,782.768 836.476,782.435 843.5,782.5C 843.365,784.972 844.032,786.306 845.5,786.5C 848.003,788.833 850.669,790.999 853.5,793C 860.433,794.506 867.433,794.839 874.5,794C 883.513,791.803 886.679,786.303 884,777.5C 882.833,776.333 881.667,775.167 880.5,774C 870.653,771.031 860.653,768.697 850.5,767C 823.966,759.051 817.133,742.885 830,718.5C 833.128,715.526 836.628,713.193 840.5,711.5C 844.759,710.185 849.093,709.018 853.5,708C 868.501,705.472 882.501,707.972 895.5,715.5 Z"/></g>
<g><path style="opacity:1" fill="#fcfdfd" d="M 486.5,727.5 C 503.961,725.488 515.127,732.821 520,749.5C 520.667,756.167 520.667,762.833 520,769.5C 517.5,781.333 510.333,788.5 498.5,791C 480.848,793.935 470.015,786.768 466,769.5C 462.635,754.944 466.135,742.444 476.5,732C 479.815,730.17 483.149,728.67 486.5,727.5 Z"/></g>
<g><path style="opacity:1" fill="#788489" d="M 322.5,708.5 C 331.652,707.506 340.985,707.173 350.5,707.5C 350.5,730.167 350.5,752.833 350.5,775.5C 349.503,753.34 349.169,731.006 349.5,708.5C 340.5,708.5 331.5,708.5 322.5,708.5 Z"/></g>
<g><path style="opacity:1" fill="#01060c" d="M 519.5,809.5 C 520.324,805.688 520.824,801.688 521,797.5C 521.499,801.486 521.666,805.486 521.5,809.5C 529.5,809.5 537.5,809.5 545.5,809.5C 545.5,762.833 545.5,716.167 545.5,669.5C 537.5,669.5 529.5,669.5 521.5,669.5C 521.667,686.503 521.5,703.503 521,720.5C 520.722,719.584 520.222,718.918 519.5,718.5C 519.5,701.833 519.5,685.167 519.5,668.5C 528.5,668.5 537.5,668.5 546.5,668.5C 546.5,715.833 546.5,763.167 546.5,810.5C 537.318,810.827 528.318,810.493 519.5,809.5 Z"/></g>
<g><path style="opacity:1" fill="#131619" d="M 701.5,708.5 C 710.5,708.5 719.5,708.5 728.5,708.5C 728.5,742.5 728.5,776.5 728.5,810.5C 719.5,810.5 710.5,810.5 701.5,810.5C 701.5,776.5 701.5,742.5 701.5,708.5 Z"/></g>
<g><path style="opacity:1" fill="#0f2430" d="M 703.5,709.5 C 711.5,709.5 719.5,709.5 727.5,709.5C 727.5,742.833 727.5,776.167 727.5,809.5C 719.5,809.5 711.5,809.5 703.5,809.5C 703.5,776.167 703.5,742.833 703.5,709.5 Z"/></g>
<g><path style="opacity:1" fill="#202426" d="M 253.5,728.5 C 253.833,728.5 254.167,728.5 254.5,728.5C 255.332,748.663 255.832,768.996 256,789.5C 256.662,791.813 257.162,794.146 257.5,796.5C 255.583,793.196 254.416,789.529 254,785.5C 253.5,766.503 253.333,747.503 253.5,728.5 Z"/></g>
<g><path style="opacity:1" fill="#0b0e12" d="M 155.5,783.5 C 153.547,782.374 152.047,780.708 151,778.5C 149.855,775.568 149.022,772.568 148.5,769.5C 140.188,770.24 131.854,770.573 123.5,770.5C 124.109,777.27 126.109,783.604 129.5,789.5C 129.376,790.107 129.043,790.44 128.5,790.5C 124.482,784.097 122.482,777.097 122.5,769.5C 131.527,768.877 140.527,768.877 149.5,769.5C 150.979,774.451 152.979,779.117 155.5,783.5 Z"/></g>
<g><path style="opacity:1" fill="#06090c" d="M 284.5,789.5 C 291.501,790.796 298.501,790.796 305.5,789.5C 306.497,796.468 306.83,803.468 306.5,810.5C 298.584,812.018 290.584,812.685 282.5,812.5C 290.038,811.56 297.705,810.56 305.5,809.5C 305.5,803.5 305.5,797.5 305.5,791.5C 298.784,792.873 292.117,792.706 285.5,791C 284.944,790.617 284.611,790.117 284.5,789.5 Z"/></g>
<g><path style="opacity:1" fill="#0c1116" d="M 845.5,786.5 C 844.032,786.306 843.365,784.972 843.5,782.5C 836.476,782.435 829.476,782.768 822.5,783.5C 823.409,791.478 827.076,797.978 833.5,803C 847.088,811.078 861.754,813.745 877.5,811C 880.506,810.668 883.34,809.834 886,808.5C 886.464,809.094 886.631,809.761 886.5,810.5C 867.501,816.027 849.501,813.86 832.5,804C 824.947,798.393 820.947,790.893 820.5,781.5C 828.514,781.432 836.514,781.099 844.5,780.5C 844.517,782.565 844.85,784.565 845.5,786.5 Z"/></g>
</svg>
